<?xml version="1.0" encoding="UTF-8"?>
<svg version="1.1" xmlns="http://www.w3.org/2000/svg" width="500" height="500">
<path d="M0 0 C4.07279689 0.38422612 7.46574118 0.87944471 11 3 C11 3.66 11 4.32 11 5 C11.58539551 5.12673096 12.17079102 5.25346191 12.77392578 5.3840332 C14.95561859 5.98771942 16.64314627 6.7617432 18.6171875 7.85546875 C19.29869873 8.22752441 19.98020996 8.59958008 20.68237305 8.98291016 C21.40593994 9.3804248 22.12950684 9.77793945 22.875 10.1875 C45.05765912 22.08626237 68.18128021 28.42196315 92.75708008 33.44677734 C95 34 95 34 96 35 C96.09496708 37.40348286 96.12558862 39.77810982 96.11352539 42.18188477 C96.11367142 42.93305573 96.11381744 43.68422668 96.1139679 44.4581604 C96.11326863 46.95260459 96.10547564 49.44697503 96.09765625 51.94140625 C96.09579212 53.66633564 96.09436819 55.39126557 96.09336853 57.11619568 C96.08954297 61.66512503 96.07971238 66.21402267 96.06866455 70.76293945 C96.05845124 75.40120006 96.05387108 80.03946577 96.04882812 84.67773438 C96.03809014 93.78517022 96.02101327 102.89258248 96 112 C91.71 112 87.42 112 83 112 C83 89.89 83 67.78 83 45 C80.03 44.67 77.06 44.34 74 44 C71.02680636 43.35120572 68.12032716 42.66653718 65.1875 41.875 C64.37345703 41.65618164 63.55941406 41.43736328 62.72070312 41.21191406 C43.0094025 35.77509396 23.55272328 28.55199407 6.54296875 17.01953125 C3.93720022 15.68751127 3.93720022 15.68751127 0.82421875 16.78515625 C-0.10777344 17.18605469 -1.03976563 17.58695313 -2 18 C-3.32911682 18.34976758 -4.66082739 18.69096017 -6 19 C-6 19.66 -6 20.32 -6 21 C-54.11347518 45 -54.11347518 45 -77 45 C-77 67.11 -77 89.22 -77 112 C-81.29 112 -85.58 112 -90 112 C-90 86.59 -90 61.18 -90 35 C-86.87888371 33.43944185 -85.18782124 32.70107759 -81.9375 32.140625 C-81.15165527 31.99810303 -80.36581055 31.85558105 -79.55615234 31.70874023 C-78.71262207 31.55735596 -77.8690918 31.40597168 -77 31.25 C-56.8093924 27.35648936 -34.90755762 21.29717173 -17.34545898 10.34448242 C-15 9 -15 9 -12 9 C-12 8.34 -12 7.68 -12 7 C-11.21753906 6.57847656 -10.43507813 6.15695313 -9.62890625 5.72265625 C-8.61699219 5.17480469 -7.60507813 4.62695312 -6.5625 4.0625 C-5.55316406 3.51722656 -4.54382813 2.97195312 -3.50390625 2.41015625 C-1.13329507 1.22300532 -1.13329507 1.22300532 0 0 Z " fill="#BBBFC4" transform="translate(247,97)"/>
<path d="M0 0 C4.29 0 8.58 0 13 0 C13.30292969 1.00417969 13.60585937 2.00835937 13.91796875 3.04296875 C20.63181353 25.08802452 29.79974473 43.24406315 46 60 C46.99 60.495 46.99 60.495 48 61 C48 61.66 48 62.32 48 63 C48.66 63 49.32 63 50 63 C50 63.66 50 64.32 50 65 C50.928125 65.4640625 50.928125 65.4640625 51.875 65.9375 C53.25 66.625 54.625 67.3125 56 68 C56 68.66 56 69.32 56 70 C56.5259375 70.24363281 57.051875 70.48726563 57.59375 70.73828125 C60.69082691 72.36223554 63.57865121 74.27266971 66.5 76.1875 C78.55569156 84.6214401 78.55569156 84.6214401 92 90 C94.62354072 89.24102217 94.62354072 89.24102217 97.0625 87.625 C98.48175781 86.77808594 98.48175781 86.77808594 99.9296875 85.9140625 C101.44949219 84.96660156 101.44949219 84.96660156 103 84 C104.64355469 83.02160156 104.64355469 83.02160156 106.3203125 82.0234375 C111.95827684 78.63542645 117.38528762 75.15874058 122.51171875 71.03125 C124 70 124 70 126 70 C126 69.34 126 68.68 126 68 C129.46153846 65 129.46153846 65 132 65 C132 64.34 132 63.68 132 63 C132.66 63 133.32 63 134 63 C134.39469482 62.10994263 134.39469482 62.10994263 134.79736328 61.2019043 C136.05287796 58.90318588 137.32810249 57.53972242 139.2421875 55.76953125 C143.0557975 52.06158057 146.10301531 48.0523699 149.125 43.6875 C149.64852051 42.93549316 150.17204102 42.18348633 150.71142578 41.40869141 C154.33140699 36.13509642 157.52866692 30.91514018 160 25 C160.51175781 23.80503906 161.02351562 22.61007813 161.55078125 21.37890625 C164.35949533 14.67946677 166.64221325 8.15923925 168 1 C169 0 169 0 171.94140625 -0.09765625 C173.73384766 -0.08025391 173.73384766 -0.08025391 175.5625 -0.0625 C177.35880859 -0.04896484 177.35880859 -0.04896484 179.19140625 -0.03515625 C180.11824219 -0.02355469 181.04507813 -0.01195312 182 0 C179.06932164 20.06652713 171.19221178 36.28724532 160 53 C159.33339355 54.00160156 159.33339355 54.00160156 158.65332031 55.0234375 C157.49009124 56.72098497 156.25082602 58.36592425 155 60 C154.34 60 153.68 60 153 60 C152.79503906 60.52980469 152.59007812 61.05960937 152.37890625 61.60546875 C150.4072979 65.02925322 147.74156538 67.55380913 144.9375 70.3125 C144.35766357 70.88701904 143.77782715 71.46153809 143.18041992 72.0534668 C130.96717028 84 130.96717028 84 127 84 C127 84.66 127 85.32 127 86 C124.73462596 87.51024936 122.48126334 88.89502226 120.125 90.25 C118.73947774 91.06101755 117.35406122 91.87221577 115.96875 92.68359375 C115.288125 93.0791748 114.6075 93.47475586 113.90625 93.88232422 C111.45463609 95.3197587 109.04172924 96.81733998 106.625 98.3125 C95.46783315 104.94749291 95.46783315 104.94749291 90.0625 105.0625 C85.45748896 103.46484311 81.28277827 101.31799855 77 99 C76.39800781 98.67966797 75.79601562 98.35933594 75.17578125 98.02929688 C65.8116728 93.02949845 57.3508107 87.55047009 49 81 C48.01 80.34 47.02 79.68 46 79 C46 78.34 46 77.68 46 77 C45.401875 76.71125 44.80375 76.4225 44.1875 76.125 C42 75 42 75 39 73 C39 72.34 39 71.68 39 71 C38.34 71 37.68 71 37 71 C37 70.34 37 69.68 37 69 C36.34 69 35.68 69 35 69 C24.64351891 59.26137715 16.56098127 46.50411229 10 34 C9.52820313 33.11054688 9.05640625 32.22109375 8.5703125 31.3046875 C5.76292904 25.60273475 3.91337963 19.72266033 2.1875 13.625 C1.96811768 12.85124023 1.74873535 12.07748047 1.52270508 11.28027344 C1.32314209 10.54067383 1.1235791 9.80107422 0.91796875 9.0390625 C0.74031982 8.38115723 0.5626709 7.72325195 0.37963867 7.04541016 C0 5 0 5 0 0 Z " fill="#7A7B7F" transform="translate(159,226)"/>
<path d="M0 0 C0.92065247 0.00007553 1.84130493 0.00015106 2.78985596 0.00022888 C3.77540466 0.00539017 4.76095337 0.01055145 5.77636719 0.01586914 C6.79172546 0.01728409 7.80708374 0.01869904 8.85321045 0.02015686 C12.09325111 0.02575023 15.33322244 0.03830154 18.57324219 0.05102539 C20.77115786 0.05604125 22.96907461 0.060604 25.16699219 0.06469727 C30.55243247 0.07571749 35.93783238 0.09244906 41.32324219 0.11352539 C41.32324219 2.42352539 41.32324219 4.73352539 41.32324219 7.11352539 C40.77502304 7.11717102 40.22680389 7.12081665 39.66197205 7.12457275 C33.93478629 7.16651686 28.20839307 7.23594492 22.48168945 7.32104492 C20.34700462 7.34919888 18.21221663 7.37044104 16.07739258 7.38452148 C13.00125525 7.40602792 9.92635105 7.45271876 6.85058594 7.50415039 C5.90239487 7.50537903 4.9542038 7.50660767 3.97727966 7.50787354 C-2.07487225 7.64041402 -5.72976696 8.55765918 -10.67675781 12.11352539 C-13.63794532 16.22097903 -14.20741174 19.98303585 -14.03222656 24.92993164 C-13.46786993 28.39669382 -11.96281803 30.50995681 -9.67675781 33.11352539 C-6.09069743 35.55996787 -2.42355826 35.3930273 1.76464844 35.38696289 C3.25098377 35.40727529 4.73731182 35.42812647 6.22363281 35.44946289 C8.5447402 35.47190083 10.86555732 35.48847399 13.18676758 35.49438477 C34.14490623 35.58418932 34.14490623 35.58418932 41.54394531 42.0559082 C46.41843284 47.17076017 48.34090092 51.8983137 48.69824219 58.92602539 C48.51266671 65.43093424 46.90533573 70.54588387 42.22949219 75.19555664 C36.75431545 79.67607627 32.62209034 81.24658007 25.53295898 81.22705078 C24.15209358 81.22693748 24.15209358 81.22693748 22.74333191 81.2268219 C21.27275078 81.21907997 21.27275078 81.21907997 19.77246094 81.21118164 C18.75851761 81.20976669 17.74457428 81.20835175 16.6999054 81.20689392 C13.47015397 81.20130867 10.24047256 81.18875884 7.01074219 81.17602539 C4.81738382 81.17100849 2.62402435 81.16644591 0.43066406 81.16235352 C-4.93850034 81.15134407 -10.30762407 81.13462059 -15.67675781 81.11352539 C-15.67675781 78.80352539 -15.67675781 76.49352539 -15.67675781 74.11352539 C-15.12631805 74.10765915 -14.5758783 74.10179291 -14.00875854 74.0957489 C-8.26559593 74.03167936 -2.52298665 73.94722515 3.21972656 73.85107422 C5.36125378 73.81787601 7.50286743 73.78982825 9.64453125 73.76708984 C12.72791273 73.73345035 15.81050588 73.68112885 18.89355469 73.62524414 C20.32358322 73.61565926 20.32358322 73.61565926 21.78250122 73.60588074 C28.26635606 73.46335413 32.55843639 72.36902486 37.69824219 68.17602539 C40.29057522 63.29047468 40.15656548 58.51550705 39.32324219 53.11352539 C38.02190549 50.10202497 36.99506059 49.27371899 34.32324219 47.11352539 C29.41261177 45.39303431 25.03574615 44.84634322 19.85058594 44.76977539 C19.16444717 44.75515259 18.47830841 44.74052979 17.77137756 44.72546387 C14.86884182 44.66386284 11.96610825 44.62371288 9.06323242 44.58178711 C6.92963502 44.5478484 4.79646254 44.50280482 2.66308594 44.45727539 C1.39843506 44.43858398 0.13378418 44.41989258 -1.16918945 44.40063477 C-6.65908296 43.95126365 -11.17438061 42.29167401 -15.67675781 39.11352539 C-15.67675781 38.45352539 -15.67675781 37.79352539 -15.67675781 37.11352539 C-16.33675781 37.11352539 -16.99675781 37.11352539 -17.67675781 37.11352539 C-22.02002199 30.19144811 -22.6402751 24.2070706 -21.67675781 16.11352539 C-19.91372991 9.03806241 -14.74295613 4.79810007 -8.67675781 1.11352539 C-5.72998075 0.1924323 -3.07847341 -0.00845734 0 0 Z " fill="#BABDC3" transform="translate(235.6767578125,175.886474609375)"/>
<path d="M0 0 C1.19625 0.26683594 2.3925 0.53367187 3.625 0.80859375 C7.66446056 1.70686721 11.70681248 2.59131825 15.75 3.47265625 C18.16668119 4.00253793 20.58334758 4.53248712 23 5.0625 C24.85818359 5.4656543 24.85818359 5.4656543 26.75390625 5.87695312 C27.92824219 6.13541016 29.10257812 6.39386719 30.3125 6.66015625 C31.38113281 6.89355713 32.44976562 7.12695801 33.55078125 7.36743164 C36 8 36 8 37 9 C37.09496708 11.40348286 37.12558862 13.77810982 37.11352539 16.18188477 C37.11367142 16.93305573 37.11381744 17.68422668 37.1139679 18.4581604 C37.11326863 20.95260459 37.10547564 23.44697503 37.09765625 25.94140625 C37.09579212 27.66633564 37.09436819 29.39126557 37.09336853 31.11619568 C37.08954297 35.66512503 37.07971238 40.21402267 37.06866455 44.76293945 C37.05845124 49.40120006 37.05387108 54.03946577 37.04882812 58.67773438 C37.03809014 67.78517022 37.02101327 76.89258248 37 86 C32.71 86 28.42 86 24 86 C24 63.89 24 41.78 24 19 C21.03 18.67 18.06 18.34 15 18 C13.34720307 17.67119227 11.70030872 17.30664979 10.0703125 16.87890625 C9.255625 16.66556641 8.4409375 16.45222656 7.6015625 16.23242188 C6.78429687 16.01134766 5.96703125 15.79027344 5.125 15.5625 C4.28453125 15.34529297 3.4440625 15.12808594 2.578125 14.90429688 C-1.12971176 13.91810707 -3.76482343 13.15678438 -7 11 C-6.01 11 -5.02 11 -4 11 C-4.2784375 9.9171875 -4.2784375 9.9171875 -4.5625 8.8125 C-5.01995307 5.87173027 -4.73516357 3.85896942 -4 1 C-2.68 1.33 -1.36 1.66 0 2 C0 1.34 0 0.68 0 0 Z " fill="#A8ABB0" transform="translate(306,123)"/>
<path d="M0 0 C-0.1875 1.8125 -0.1875 1.8125 -1 4 C-3.5625 5.75 -3.5625 5.75 -6 7 C-5.67 7.99 -5.34 8.98 -5 10 C-5.99 10 -6.98 10 -8 10 C-7.67 10.66 -7.34 11.32 -7 12 C-6.01 12.33 -5.02 12.66 -4 13 C-3.67 12.01 -3.34 11.02 -3 10 C-1.35 10.66 0.3 11.32 2 12 C-1.46214649 14.05164237 -2.59389235 14 -7 14 C-7 36.11 -7 58.22 -7 81 C-11.29 81 -15.58 81 -20 81 C-20 55.59 -20 30.18 -20 4 C-16.54350424 2.27175212 -14.27555438 1.52388329 -10.5625 0.875 C-9.17224609 0.62363281 -9.17224609 0.62363281 -7.75390625 0.3671875 C-5.12946175 0.01726157 -2.64357647 -0.06716891 0 0 Z " fill="#A0A2A7" transform="translate(177,128)"/>
<path d="M0 0 C1.79244141 0.01740234 1.79244141 0.01740234 3.62109375 0.03515625 C5.41740234 0.04869141 5.41740234 0.04869141 7.25 0.0625 C8.17683594 0.07410156 9.10367188 0.08570313 10.05859375 0.09765625 C7.77896027 15.70644082 2.65406081 36.45377388 -8.94140625 48.09765625 C-12.03125 48.5078125 -12.03125 48.5078125 -14.94140625 48.09765625 C-15.60140625 47.43765625 -16.26140625 46.77765625 -16.94140625 46.09765625 C-17.27140625 47.08765625 -17.60140625 48.07765625 -17.94140625 49.09765625 C-19.42640625 49.59265625 -19.42640625 49.59265625 -20.94140625 50.09765625 C-21.93140625 49.43765625 -22.92140625 48.77765625 -23.94140625 48.09765625 C-23.59207031 47.61554688 -23.24273437 47.1334375 -22.8828125 46.63671875 C-22.42777344 46.00507813 -21.97273438 45.3734375 -21.50390625 44.72265625 C-21.05144531 44.09617187 -20.59898437 43.4696875 -20.1328125 42.82421875 C-18.88609908 41.10362986 -18.88609908 41.10362986 -17.94140625 39.09765625 C-16.95140625 39.09765625 -15.96140625 39.09765625 -14.94140625 39.09765625 C-15.09609375 37.42703125 -15.09609375 37.42703125 -15.25390625 35.72265625 C-15.26222262 30.99064105 -13.52921143 27.83260378 -11.3125 23.73828125 C-7.58161565 16.55287435 -5.59301376 8.97455361 -3.94140625 1.09765625 C-2.94140625 0.09765625 -2.94140625 0.09765625 0 0 Z " fill="#8E9094" transform="translate(330.94140625,225.90234375)"/>
<path d="M0 0 C4.96580074 1.24145018 7.24244707 2.66670254 10 7 C12.72364556 12.85583796 12.93032034 19.16633093 11.41796875 25.3984375 C9.05851246 31.71186849 4.82290753 35.70067971 -1 39 C-4.31207298 39.81190575 -7.38670317 40.12290164 -10.7902832 40.11352539 C-12.17114861 40.11341209 -12.17114861 40.11341209 -13.57991028 40.11329651 C-15.05049141 40.10555458 -15.05049141 40.10555458 -16.55078125 40.09765625 C-17.56472458 40.0962413 -18.57866791 40.09482635 -19.62333679 40.09336853 C-22.85308821 40.08778328 -26.08276962 40.07523345 -29.3125 40.0625 C-31.50585837 40.0574831 -33.69921783 40.05292052 -35.89257812 40.04882812 C-41.26174253 40.03781868 -46.63086626 40.0210952 -52 40 C-52 37.69 -52 35.38 -52 33 C-51.44956024 32.99413376 -50.89912048 32.98826752 -50.33200073 32.98222351 C-44.58883811 32.91815397 -38.84622884 32.83369976 -33.10351562 32.73754883 C-30.9619884 32.70435062 -28.82037476 32.67630286 -26.67871094 32.65356445 C-23.59532946 32.61992496 -20.51273631 32.56760346 -17.4296875 32.51171875 C-16.47633514 32.50532883 -15.52298279 32.4989389 -14.54074097 32.49235535 C-8.05688612 32.34982874 -3.7648058 31.25549947 1.375 27.0625 C3.91279934 22.27972433 3.49712786 17.31356333 3 12 C2.505 11.505 2.505 11.505 2 11 C1.60545777 9.15400312 1.25823134 7.29774178 0.9375 5.4375 C0.76089844 4.42558594 0.58429688 3.41367188 0.40234375 2.37109375 C0.20318359 1.19740234 0.20318359 1.19740234 0 0 Z " fill="#9A9B9F" transform="translate(272,217)"/>
<path d="M0 0 C1.49739583 1.26953125 2.99479167 2.5390625 4.4921875 3.80859375 C7.87640796 6.48265396 11.11894668 6.15118959 15.24609375 6.17578125 C16.73894586 6.19901368 18.23178439 6.22313231 19.72460938 6.24804688 C22.06771473 6.28288044 24.41033171 6.31234249 26.75366211 6.32592773 C44.79674477 6.45089314 44.79674477 6.45089314 53 11 C53.495 11.99 53.495 11.99 54 13 C53.01 13 52.02 13 51 13 C51.495 13.99 51.495 13.99 52 15 C52.039992 16.99960012 52.04346799 19.00047242 52 21 C51.113125 20.360625 50.22625 19.72125 49.3125 19.0625 C44.18308912 15.86871586 39.69200536 15.86582448 33.72265625 15.75390625 C32.30793636 15.72097453 30.89322298 15.68776277 29.47851562 15.65429688 C27.2690056 15.60693095 25.05952316 15.56244712 22.84985352 15.52319336 C20.70302381 15.48325568 18.55670104 15.43178067 16.41015625 15.37890625 C15.13277588 15.3538501 13.85539551 15.32879395 12.53930664 15.30297852 C7.0385898 14.8320956 2.51431369 13.18657437 -2 10 C-2 9.34 -2 8.68 -2 8 C-2.66 8 -3.32 8 -4 8 C-4.66 6.35 -5.32 4.7 -6 3 C-3.525 3.495 -3.525 3.495 -1 4 C-0.67 2.68 -0.34 1.36 0 0 Z " fill="#8E9095" transform="translate(222,205)"/>
<path d="M0 0 C4.96580074 1.24145018 7.24244707 2.66670254 10 7 C12.72404156 12.85668936 12.96124116 19.2097896 11.3828125 25.43359375 C9.18012374 31.21321515 5.64466742 35.31957133 0 38 C-2.75390625 38.15234375 -2.75390625 38.15234375 -5 38 C-4.07596519 33.47222944 -3.23014609 31.02521064 0.125 27.8125 C3.20379062 24.53894403 3.42171608 22.0708048 3.4375 17.625 C3.55904944 13.99487064 3.55904944 13.99487064 2 11 C1.60545777 9.15400312 1.25823134 7.29774178 0.9375 5.4375 C0.76089844 4.42558594 0.58429688 3.41367188 0.40234375 2.37109375 C0.26957031 1.58863281 0.13679688 0.80617187 0 0 Z " fill="#B0B2B7" transform="translate(272,217)"/>
<path d="M0 0 C15.18 0 30.36 0 46 0 C46 2.31 46 4.62 46 7 C34.12 7 22.24 7 10 7 C10 6.67 10 6.34 10 6 C11.98 5.67 13.96 5.34 16 5 C16.33 4.01 16.66 3.02 17 2 C11.39 1.67 5.78 1.34 0 1 C0 0.67 0 0.34 0 0 Z " fill="#78797D" transform="translate(231,176)"/>
<path d="M0 0 C2.875 1.5625 2.875 1.5625 5 4 C5.8125 7.75 5.8125 7.75 6 11 C3.35541621 12.32229189 1.32238699 12.09677194 -1.625 12.0625 C-2.62789062 12.05347656 -3.63078125 12.04445313 -4.6640625 12.03515625 C-5.43492187 12.02355469 -6.20578125 12.01195312 -7 12 C-7 12.99 -7 13.98 -7 15 C-4.36 15.33 -1.72 15.66 1 16 C1 15.34 1 14.68 1 14 C2.32 14 3.64 14 5 14 C4.66411682 16.51912388 4.42645046 17.67196119 2.375 19.25 C-0.95171877 20.30054277 -3.52817296 20.36545548 -7 20 C-9.75329021 18.20437595 -11.52627461 16.94745078 -13 14 C-13.37712577 9.00308353 -13.09290612 6.00932275 -10 2 C-6.2626144 -0.4915904 -4.42668417 -0.45793285 0 0 Z M-6 3 C-6 3.66 -6 4.32 -6 5 C-6.66 5 -7.32 5 -8 5 C-8.33 5.99 -8.66 6.98 -9 8 C-5.37 8 -1.74 8 2 8 C1.67 7.01 1.34 6.02 1 5 C0.34 5 -0.32 5 -1 5 C-1 4.34 -1 3.68 -1 3 C-2.65 3 -4.3 3 -6 3 Z " fill="#ABABAE" transform="translate(234,359)"/>
<path d="M0 0 C3 1 3 1 4.1796875 3.13671875 C5.13935044 6.48639941 5.19529282 9.33300519 5.125 12.8125 C5.10695313 13.97394531 5.08890625 15.13539063 5.0703125 16.33203125 C5.04710937 17.21246094 5.02390625 18.09289062 5 19 C3.68 19 2.36 19 1 19 C-0.50145913 19.21940336 -2.0014771 19.44886536 -3.5 19.6875 C-6.47614649 20.02090686 -7.74800054 20.10448758 -10.5625 18.9375 C-12 17 -12 17 -12.5 14 C-12 11 -12 11 -10.5625 9.1875 C-6.82315312 7.45463193 -3.08031126 7.2528398 1 7 C0.34 6.01 -0.32 5.02 -1 4 C-4.60591321 3.52553774 -6.89782379 4.16167336 -10 6 C-10 4.68 -10 3.36 -10 2 C-6.31884463 -0.45410358 -4.34706402 -0.23287843 0 0 Z M-8 12 C-8 13.32 -8 14.64 -8 16 C-5.69 16 -3.38 16 -1 16 C-0.34 14.35 0.32 12.7 1 11 C-2.34252724 10.92572162 -4.8035914 10.93453047 -8 12 Z " fill="#5B5B5F" transform="translate(329,359)"/>
<path d="M0 0 C5.75 0.875 5.75 0.875 8 2 C8 2.66 8 3.32 8 4 C8.639375 4.103125 9.27875 4.20625 9.9375 4.3125 C10.618125 4.539375 11.29875 4.76625 12 5 C12.33 5.99 12.66 6.98 13 8 C12.67 8.66 12.34 9.32 12 10 C13.32 9.67 14.64 9.34 16 9 C15.835 9.598125 15.67 10.19625 15.5 10.8125 C14.8885876 13.11344336 14.8885876 13.11344336 15 16 C14.360625 16.12375 13.72125 16.2475 13.0625 16.375 C12.381875 16.58125 11.70125 16.7875 11 17 C10.67 17.66 10.34 18.32 10 19 C8.68277821 18.57692877 7.37127336 18.13602514 6.0625 17.6875 C5.33160156 17.44386719 4.60070312 17.20023438 3.84765625 16.94921875 C2 16 2 16 1 13 C0.34 13 -0.32 13 -1 13 C-0.67 12.01 -0.34 11.02 0 10 C-0.33 9.01 -0.66 8.02 -1 7 C-0.34 7 0.32 7 1 7 C0.34 6.01 -0.32 5.02 -1 4 C-0.625 1.8125 -0.625 1.8125 0 0 Z " fill="#C0C3CA" transform="translate(250,98)"/>
<path d="M0 0 C0.33 5.94 0.66 11.88 1 18 C-0.65 17.67 -2.3 17.34 -4 17 C-4.33 17.33 -4.66 17.66 -5 18 C-8.55480112 18.26828688 -11.1694048 18.38335163 -14.4375 16.875 C-16 15 -16 15 -16.5 12 C-16 9 -16 9 -14.5 7.1875 C-10.99565869 5.52293788 -7.86296406 5.32191367 -4 5 C-4 3.68 -4 2.36 -4 1 C-5.60875 1.4640625 -5.60875 1.4640625 -7.25 1.9375 C-9.82866222 2.66812096 -12.39512102 3.37482904 -15 4 C-14.75 2.125 -14.75 2.125 -14 0 C-9.38607643 -3.41772116 -4.82326986 -2.41163493 0 0 Z M-12 11 C-12 11.99 -12 12.98 -12 14 C-8.58343976 14.16677282 -8.58343976 14.16677282 -5 14 C-4.34 13.34 -3.68 12.68 -3 12 C-3 11.01 -3 10.02 -3 9 C-7.7897321 8.76571687 -7.7897321 8.76571687 -12 11 Z " fill="#AEAFB1" transform="translate(295,361)"/>
<path d="M0 0 C0.79921875 0.11085938 1.5984375 0.22171875 2.421875 0.3359375 C3.32679688 0.47902344 3.32679688 0.47902344 4.25 0.625 C4.58 1.615 4.91 2.605 5.25 3.625 C5.91 3.625 6.57 3.625 7.25 3.625 C8.53571429 12.19642857 8.53571429 12.19642857 7.25 15.625 C6.59 15.625 5.93 15.625 5.25 15.625 C5.25 16.285 5.25 16.945 5.25 17.625 C1.53720382 20.10019745 -1.44703095 20.27086475 -5.75 19.625 C-8.6875 18.1875 -8.6875 18.1875 -10.75 15.625 C-12.04252053 11.32195027 -12.25440653 7.87274246 -10.5625 3.6875 C-7.3547302 0.0372792 -4.75338479 -0.69902717 0 0 Z M-6 4.1875 C-8.36611613 7.48316175 -8.19088277 9.65705505 -7.75 13.625 C-5.81110754 15.98139408 -5.81110754 15.98139408 -2.3125 16 C1.20020006 15.94827668 1.20020006 15.94827668 3.25 14.0625 C4.68135511 10.57357191 4.183966 8.22744028 3.25 4.625 C-0.34162776 2.23058149 -2.32996104 1.63886184 -6 4.1875 Z " fill="#B2B2B2" transform="translate(188.75,359.375)"/>
<path d="M0 0 C0.6875 2.0625 0.6875 2.0625 1 4 C-0.32 4 -1.64 4 -3 4 C-3.33 3.67 -3.66 3.34 -4 3 C-5.66617115 2.95936168 -7.33388095 2.957279 -9 3 C-9.33 3.66 -9.66 4.32 -10 5 C-9.38511719 5.18175781 -8.77023438 5.36351562 -8.13671875 5.55078125 C-7.32847656 5.80214844 -6.52023438 6.05351562 -5.6875 6.3125 C-4.88699219 6.55613281 -4.08648437 6.79976563 -3.26171875 7.05078125 C-0.85081407 8.06261171 0.42698016 8.91971969 2 11 C1.875 14.0625 1.875 14.0625 1 17 C-2.70401128 19.46934085 -5.70587865 19.44928433 -10 19 C-12.5 18 -12.5 18 -14 17 C-14 15.68 -14 14.36 -14 13 C-13.505 13.144375 -13.01 13.28875 -12.5 13.4375 C-9.02247078 14.21994407 -5.54044877 14.58694764 -2 15 C-2.33 14.01 -2.66 13.02 -3 12 C-5.03010445 11.01179035 -5.03010445 11.01179035 -7.4375 10.375 C-11.93625498 9.03187251 -11.93625498 9.03187251 -14 8 C-14.48192771 2.57831325 -14.48192771 2.57831325 -12.4375 0.125 C-8.21718865 -1.82283601 -4.33259519 -1.4441984 0 0 Z " fill="#808081" transform="translate(168,360)"/>
<path d="M0 0 C4.29 0 8.58 0 13 0 C13.33 2.97 13.66 5.94 14 9 C12.02 9.99 12.02 9.99 10 11 C10 11.66 10 12.32 10 13 C8.68 13.33 7.36 13.66 6 14 C6 14.66 6 15.32 6 16 C5.34 16 4.68 16 4 16 C0.76674997 10.65810864 0.41293292 6.11140728 0 0 Z " fill="#94959A" transform="translate(159,226)"/>
<path d="M0 0 C1.49739583 1.26953125 2.99479167 2.5390625 4.4921875 3.80859375 C7.94424859 6.5362586 11.41695232 6.22033468 15.6328125 6.31640625 C16.38464813 6.33718735 17.13648376 6.35796844 17.91110229 6.37937927 C20.31564085 6.44482705 22.72028967 6.50373738 25.125 6.5625 C26.75391771 6.60568977 28.38282422 6.64930421 30.01171875 6.69335938 C34.00769915 6.80050351 38.00379059 6.90178433 42 7 C42 7.33 42 7.66 42 8 C26.16 8.495 26.16 8.495 10 9 C9.67 10.65 9.34 12.3 9 14 C5.36029133 14.42820102 3.95430537 13.97413512 0.6875 12.125 C-0.199375 11.42375 -1.08625 10.7225 -2 10 C-2 9.34 -2 8.68 -2 8 C-2.66 8 -3.32 8 -4 8 C-4.66 6.35 -5.32 4.7 -6 3 C-3.525 3.495 -3.525 3.495 -1 4 C-0.67 2.68 -0.34 1.36 0 0 Z " fill="#6B6E77" transform="translate(222,205)"/>
<path d="M0 0 C4.96580074 1.24145018 7.24244707 2.66670254 10 7 C12.44234279 12.25103701 12.20161108 17.33248844 12 23 C11.566875 22.34 11.13375 21.68 10.6875 21 C9.8521875 20.01 9.8521875 20.01 9 19 C8.01 19 7.02 19 6 19 C5.34 20.32 4.68 21.64 4 23 C3.93941406 22.21753906 3.87882812 21.43507812 3.81640625 20.62890625 C3.73261719 19.61699219 3.64882813 18.60507813 3.5625 17.5625 C3.44068359 16.04849609 3.44068359 16.04849609 3.31640625 14.50390625 C3.26788532 12.06359221 3.26788532 12.06359221 2 11 C1.60545777 9.15400312 1.25823134 7.29774178 0.9375 5.4375 C0.76089844 4.42558594 0.58429688 3.41367188 0.40234375 2.37109375 C0.26957031 1.58863281 0.13679688 0.80617187 0 0 Z " fill="#A9ABB0" transform="translate(272,217)"/>
<path d="M0 0 C0.66 0 1.32 0 2 0 C2.2475 0.639375 2.495 1.27875 2.75 1.9375 C3.81562433 4.18741541 3.81562433 4.18741541 6.125 4.75 C6.74375 4.8325 7.3625 4.915 8 5 C8 5.99 8 6.98 8 8 C6.35 8.33 4.7 8.66 3 9 C3 12.96 3 16.92 3 21 C4.65 21 6.3 21 8 21 C8 22.32 8 23.64 8 25 C2.25 25.125 2.25 25.125 0 24 C-1.14077657 20.57767028 -1.09815117 17.91326783 -1.0625 14.3125 C-1.05347656 13.13300781 -1.04445312 11.95351563 -1.03515625 10.73828125 C-1.02355469 9.83464844 -1.01195312 8.93101562 -1 8 C-1.99 8 -2.98 8 -4 8 C-4 7.01 -4 6.02 -4 5 C-3.01 5 -2.02 5 -1 5 C-0.67 3.35 -0.34 1.7 0 0 Z " fill="#A8A8AB" transform="translate(207,354)"/>
<path d="M0 0 C1.37478516 0.01740234 1.37478516 0.01740234 2.77734375 0.03515625 C3.69644531 0.04417969 4.61554688 0.05320312 5.5625 0.0625 C6.27277344 0.07410156 6.98304688 0.08570313 7.71484375 0.09765625 C7.71484375 1.08765625 7.71484375 2.07765625 7.71484375 3.09765625 C5.73484375 3.75765625 3.75484375 4.41765625 1.71484375 5.09765625 C1.38484375 10.04765625 1.05484375 14.99765625 0.71484375 20.09765625 C-0.60515625 20.09765625 -1.92515625 20.09765625 -3.28515625 20.09765625 C-3.31404139 16.95184202 -3.33191548 13.80606156 -3.34765625 10.66015625 C-3.35603516 9.76232422 -3.36441406 8.86449219 -3.37304688 7.93945312 C-3.37626953 7.08544922 -3.37949219 6.23144531 -3.3828125 5.3515625 C-3.39066772 4.16542358 -3.39066772 4.16542358 -3.39868164 2.95532227 C-3.22779066 0.15895784 -2.79677051 0.11952011 0 0 Z " fill="#868687" transform="translate(251.28515625,358.90234375)"/>
<path d="M0 0 C0 3.3 0 6.6 0 10 C-0.99 10.495 -0.99 10.495 -2 11 C-2 10.01 -2 9.02 -2 8 C-4.31 8 -6.62 8 -9 8 C-8.67 7.34 -8.34 6.68 -8 6 C-5.9375 5.375 -5.9375 5.375 -4 5 C-4 3.68 -4 2.36 -4 1 C-5.60875 1.4640625 -5.60875 1.4640625 -7.25 1.9375 C-9.82866222 2.66812096 -12.39512102 3.37482904 -15 4 C-14.75 2.125 -14.75 2.125 -14 0 C-9.38607643 -3.41772116 -4.82326986 -2.41163493 0 0 Z " fill="#CACACC" transform="translate(295,361)"/>
<path d="M0 0 C1.32 0.33 2.64 0.66 4 1 C4 6.94 4 12.88 4 19 C2.68 19.33 1.36 19.66 0 20 C0 13.4 0 6.8 0 0 Z " fill="#98989A" transform="translate(267,359)"/>
<path d="M0 0 C0.33 0 0.66 0 1 0 C1 1.98 1 3.96 1 6 C1.99 5.67 2.98 5.34 4 5 C4.99 6.485 4.99 6.485 6 8 C7.96361864 8.57748803 7.96361864 8.57748803 10.125 8.6875 C11.40375 8.790625 12.6825 8.89375 14 9 C14 8.34 14 7.68 14 7 C15.32 7 16.64 7 18 7 C17.66411682 9.51912388 17.42645046 10.67196119 15.375 12.25 C12.04828123 13.30054277 9.47182704 13.36545548 6 13 C3.24670979 11.20437595 1.47372539 9.94745078 0 7 C-0.04022391 4.6670134 -0.04320247 2.33293334 0 0 Z " fill="#898A8C" transform="translate(221,366)"/>
<path d="M0 0 C0.99 0.33 1.98 0.66 3 1 C3 7.6 3 14.2 3 21 C2.01 21 1.02 21 0 21 C0 14.07 0 7.14 0 0 Z " fill="#666668" transform="translate(343,358)"/>
<path d="M0 0 C0.33 0.66 0.66 1.32 1 2 C1.99 2.33 2.98 2.66 4 3 C3.67 3.99 3.34 4.98 3 6 C7.64586892 5.51515724 7.64586892 5.51515724 12 4 C11.67 4.99 11.34 5.98 11 7 C10.01 7.33 9.02 7.66 8 8 C8.66 8.66 9.32 9.32 10 10 C3.77777778 10.35897436 3.77777778 10.35897436 0.5625 8.875 C-1 7 -1 7 -1.3125 3.875 C-1 1 -1 1 0 0 Z " fill="#929394" transform="translate(280,369)"/>
<path d="M0 0 C0.33 1.32 0.66 2.64 1 4 C0.34 4 -0.32 4 -1 4 C-1.309375 5.093125 -1.61875 6.18625 -1.9375 7.3125 C-2.58337897 9.55407994 -3.2623117 11.7869351 -4 14 C-5.65 14.33 -7.3 14.66 -9 15 C-9.33 12.69 -9.66 10.38 -10 8 C-7.50935112 7.31292445 -5.62113708 7 -3 7 C-3.33 5.02 -3.66 3.04 -4 1 C-2.68 0.67 -1.36 0.34 0 0 Z " fill="#CBCFD5" transform="translate(205,120)"/>
<path d="M0 0 C0.35680552 3.8356593 0.35794008 5.50350247 -1.9375 8.6875 C-2.618125 9.450625 -3.29875 10.21375 -4 11 C-4.33 11.99 -4.66 12.98 -5 14 C-7.23551759 10.64672361 -7.17283528 10.09256343 -6.625 6.3125 C-6.51414062 5.50425781 -6.40328125 4.69601563 -6.2890625 3.86328125 C-6.19367188 3.24839844 -6.09828125 2.63351563 -6 2 C-1.125 0 -1.125 0 0 0 Z " fill="#D5D8DC" transform="translate(283,234)"/>
<path d="M0 0 C0.33 0.99 0.66 1.98 1 3 C1.66 3 2.32 3 3 3 C3.33 2.34 3.66 1.68 4 1 C4 1.99 4 2.98 4 4 C3.34 4 2.68 4 2 4 C2 4.66 2 5.32 2 6 C-2.06849409 8.71232939 -4.16476784 8.30699887 -9 8 C-9.66 7.34 -10.32 6.68 -11 6 C-10.34 6 -9.68 6 -9 6 C-9 5.34 -9 4.68 -9 4 C-7.88625 3.896875 -6.7725 3.79375 -5.625 3.6875 C-4.42875 3.460625 -3.2325 3.23375 -2 3 C-1.34 2.01 -0.68 1.02 0 0 Z " fill="#939496" transform="translate(192,371)"/>
<path d="M0 0 C0.33 0 0.66 0 1 0 C1 2.97 1 5.94 1 9 C1.66 9 2.32 9 3 9 C3.33 10.32 3.66 11.64 4 13 C5.65 13 7.3 13 9 13 C9 14.32 9 15.64 9 17 C3.25 17.125 3.25 17.125 1 16 C-0.14077657 12.57767028 -0.09815117 9.91326783 -0.0625 6.3125 C-0.05347656 5.13300781 -0.04445312 3.95351563 -0.03515625 2.73828125 C-0.02355469 1.83464844 -0.01195312 0.93101562 0 0 Z " fill="#969597" transform="translate(206,362)"/>
<path d="M0 0 C3 1 3 1 4 3 C4.99 3.33 5.98 3.66 7 4 C5.35 5.65 3.7 7.3 2 9 C1.34 8.67 0.68 8.34 0 8 C0 7.34 0 6.68 0 6 C-0.99 6.33 -1.98 6.66 -3 7 C-3.73323796 9.01508358 -3.73323796 9.01508358 -4 11 C-4.66 11 -5.32 11 -6 11 C-4.74194623 6.49197399 -3.09592835 3.5087188 0 0 Z " fill="#AAABAF" transform="translate(221,181)"/>
<path d="M0 0 C0.99 0.33 1.98 0.66 3 1 C3.6875 3.0625 3.6875 3.0625 4 5 C2.68 5 1.36 5 0 5 C-0.33 4.67 -0.66 4.34 -1 4 C-3.67058851 3.85884839 -6.32432238 3.95752893 -9 4 C-9.33 5.32 -9.66 6.64 -10 8 C-10.1875 5.125 -10.1875 5.125 -10 2 C-6.31884463 -0.45410358 -4.34706402 -0.23287843 0 0 Z " fill="#A6A6A6" transform="translate(165,359)"/>
<path d="M0 0 C0.33 0 0.66 0 1 0 C1.38854209 2.28940956 1.7604628 4.58164574 2.125 6.875 C2.33382812 8.15117187 2.54265625 9.42734375 2.7578125 10.7421875 C2.83773437 11.81726563 2.91765625 12.89234375 3 14 C2.34 14.66 1.68 15.32 1 16 C-1.4375 15.1875 -1.4375 15.1875 -4 14 C-4.33 13.01 -4.66 12.02 -5 11 C-4.0409375 10.2265625 -4.0409375 10.2265625 -3.0625 9.4375 C-0.44208319 6.34064377 -0.30610183 3.97932377 0 0 Z " fill="#AAACB3" transform="translate(220,194)"/>
<path d="M0 0 C2.31309705 0.11341637 4.62550185 0.24103807 6.9375 0.375 C8.86916016 0.47941406 8.86916016 0.47941406 10.83984375 0.5859375 C12.40412109 0.79089844 12.40412109 0.79089844 14 1 C14.33 1.66 14.66 2.32 15 3 C12.87562952 3.50266794 10.75048274 4.0020561 8.625 4.5 C7.44164062 4.7784375 6.25828125 5.056875 5.0390625 5.34375 C2 6 2 6 0 6 C0 4.02 0 2.04 0 0 Z " fill="#D1D2D5" transform="translate(222,366)"/>
<path d="M0 0 C-0.5625 1.875 -0.5625 1.875 -2 4 C-4.31847874 4.7166207 -6.65319703 5.38242027 -9 6 C-10.90170054 7.47761659 -10.90170054 7.47761659 -12 9 C-12.33 7.35 -12.66 5.7 -13 4 C-9.15902469 0.46630272 -5.10845088 0 0 0 Z " fill="#69696A" transform="translate(330,366)"/>
<path d="M0 0 C0.66 0 1.32 0 2 0 C2.33 0.66 2.66 1.32 3 2 C3.66 2 4.32 2 5 2 C4.814375 2.78375 4.62875 3.5675 4.4375 4.375 C3.74037734 6.97089775 3.74037734 6.97089775 5 9 C4.67 9.99 4.34 10.98 4 12 C2.0625 11.3125 2.0625 11.3125 0 10 C-1.2652614 6.39887139 -0.9392247 3.65254051 0 0 Z " fill="#CED1D7" transform="translate(218,114)"/>
<path d="M0 0 C2.46800047 1.15173355 4.04783565 2.04783565 6 4 C7.64991582 4.70710678 9.31562256 5.37943989 11 6 C11 6.99 11 7.98 11 9 C9.741875 8.87625 8.48375 8.7525 7.1875 8.625 C6.47980469 8.55539062 5.77210938 8.48578125 5.04296875 8.4140625 C3 8 3 8 0 6 C-0.1875 2.875 -0.1875 2.875 0 0 Z " fill="#A4A4A6" transform="translate(154,362)"/>
<path d="M0 0 C0.99 0 1.98 0 3 0 C4.06333266 4.01703448 3.70555651 6.94305004 3 11 C3.33 11.99 3.66 12.98 4 14 C2.35 13.67 0.7 13.34 -1 13 C-0.67 12.01 -0.34 11.02 0 10 C-0.33 9.01 -0.66 8.02 -1 7 C-0.34 7 0.32 7 1 7 C0.34 6.01 -0.32 5.02 -1 4 C-0.625 1.8125 -0.625 1.8125 0 0 Z " fill="#D2D5DB" transform="translate(250,98)"/>
<path d="M0 0 C0.33 0.99 0.66 1.98 1 3 C3.31 3 5.62 3 8 3 C8.33 3.99 8.66 4.98 9 6 C6.19084526 7.40457737 4.11189466 7.24895157 1 7 C-1.375 5.5 -1.375 5.5 -3 4 C-2 2 -2 2 0 0 Z " fill="#59595B" transform="translate(320,372)"/>
<path d="M0 0 C0.66 1.32 1.32 2.64 2 4 C0.14375 3.938125 0.14375 3.938125 -1.75 3.875 C-5.01637962 3.86341709 -7.2146947 4.1431298 -10 6 C-10 4.68 -10 3.36 -10 2 C-6.3558226 -0.4294516 -4.28758728 -0.16179575 0 0 Z " fill="#6C6C6D" transform="translate(329,359)"/>
<path d="M0 0 C2.00720923 0.28674418 4.0085944 0.61866701 6 1 C6.33 2.32 6.66 3.64 7 5 C3.94736336 5.98120464 2.05263664 5.98120464 -1 5 C-1 1 -1 1 0 0 Z " fill="#C4C7CE" transform="translate(224,179)"/>
<path d="M0 0 C0.8971875 0.5259375 0.8971875 0.5259375 1.8125 1.0625 C1.1525 1.0625 0.4925 1.0625 -0.1875 1.0625 C-0.8475 3.0425 -1.5075 5.0225 -2.1875 7.0625 C-3.8375 7.0625 -5.4875 7.0625 -7.1875 7.0625 C-6.375 3.625 -6.375 3.625 -5.1875 0.0625 C-2.1875 -0.9375 -2.1875 -0.9375 0 0 Z " fill="#D9DBE1" transform="translate(274.1875,247.9375)"/>
<path d="M0 0 C4.3890815 0.51035831 7.33708062 1.52214277 11 4 C10.01 4.33 9.02 4.66 8 5 C8.33 5.66 8.66 6.32 9 7 C9.039992 8.99960012 9.04346799 11.00047242 9 13 C7 11.4375 7 11.4375 5 9 C4.75 5.25 4.75 5.25 5 2 C3.68 2.33 2.36 2.66 1 3 C0.67 2.01 0.34 1.02 0 0 Z " fill="#95979B" transform="translate(265,213)"/>
<path d="M0 0 C1.0625 1.875 1.0625 1.875 2 4 C1 6 1 6 -2 8 C-3.36746171 9.79352544 -4.58080865 11.65294778 -5.81640625 13.5390625 C-6.20699219 14.02117187 -6.59757812 14.50328125 -7 15 C-7.66 15 -8.32 15 -9 15 C-7.38325319 11.57053707 -5.42402323 8.43736948 -3.375 5.25 C-2.74335938 4.26515625 -2.11171875 3.2803125 -1.4609375 2.265625 C-0.97882813 1.51796875 -0.49671875 0.7703125 0 0 Z " fill="#5E5E61" transform="translate(315,259)"/>
<path d="M0 0 C3.69900008 0.88776002 7.34550461 1.94581864 11 3 C11 3.66 11 4.32 11 5 C9.54176788 5.0270043 8.08339325 5.04639787 6.625 5.0625 C5.81289062 5.07410156 5.00078125 5.08570313 4.1640625 5.09765625 C2 5 2 5 0 4 C0 2.68 0 1.36 0 0 Z " fill="#AFAFB2" transform="translate(154,373)"/>
<path d="M0 0 C1.32 0.33 2.64 0.66 4 1 C3.835 1.721875 3.67 2.44375 3.5 3.1875 C3.02412881 5.86427545 2.922557 8.28949487 3 11 C2.01 11 1.02 11 0 11 C0 7.37 0 3.74 0 0 Z " fill="#D2D1D4" transform="translate(207,360)"/>
<path d="M0 0 C1.134375 0.020625 2.26875 0.04125 3.4375 0.0625 C3.4375 1.3825 3.4375 2.7025 3.4375 4.0625 C4.4275 4.7225 5.4175 5.3825 6.4375 6.0625 C4.4575 6.3925 2.4775 6.7225 0.4375 7.0625 C0.1075 6.0725 -0.2225 5.0825 -0.5625 4.0625 C-2.55915314 2.37711399 -2.55915314 2.37711399 -4.5625 1.0625 C-3.5625 0.0625 -3.5625 0.0625 0 0 Z " fill="#ADAFB7" transform="translate(230.5625,176.9375)"/>
<path d="M0 0 C0.99 0.33 1.98 0.66 3 1 C3.625 3.8125 3.625 3.8125 4 7 C3.01 8.485 3.01 8.485 2 10 C1.34 10 0.68 10 0 10 C0 6.7 0 3.4 0 0 Z " fill="#CACACC" transform="translate(193,364)"/>
<path d="M0 0 C1.32 0 2.64 0 4 0 C3.625 1.9375 3.625 1.9375 3 4 C-0.21451269 5.60725635 -3.43612536 5.05748185 -7 5 C-7 4.34 -7 3.68 -7 3 C-5.5459375 2.814375 -5.5459375 2.814375 -4.0625 2.625 C-2.5465625 2.315625 -2.5465625 2.315625 -1 2 C-0.67 1.34 -0.34 0.68 0 0 Z " fill="#BBBCBD" transform="translate(235,373)"/>
<path d="M0 0 C3.3 0 6.6 0 10 0 C10 0.99 10 1.98 10 3 C8.02 3.66 6.04 4.32 4 5 C3.71125 4.360625 3.4225 3.72125 3.125 3.0625 C2.17176549 0.84793921 2.17176549 0.84793921 0 0 Z " fill="#9E9E9F" transform="translate(249,359)"/>
<path d="M0 0 C-0.8125 2.4375 -0.8125 2.4375 -2 5 C-2.99 5.33 -3.98 5.66 -5 6 C-5.33 4.02 -5.66 2.04 -6 0 C-3.50907189 -1.24546405 -2.58919267 -0.7767578 0 0 Z " fill="#818185" transform="translate(321,274)"/>
<path d="M0 0 C-0.165 0.598125 -0.33 1.19625 -0.5 1.8125 C-1.1114124 4.11344336 -1.1114124 4.11344336 -1 7 C-2.32 7.33 -3.64 7.66 -5 8 C-5 4 -5 4 -4 1 C-2 0 -2 0 0 0 Z " fill="#D2D5DB" transform="translate(266,107)"/>
<path d="M0 0 C-0.56371414 3.26954202 -1.49962266 4.82575883 -4 7 C-4.66 6.34 -5.32 5.68 -6 5 C-6.99 5.495 -6.99 5.495 -8 6 C-8.66 5.34 -9.32 4.68 -10 4 C-8.71086513 3.32845067 -7.41859796 2.66291141 -6.125 2 C-5.40570313 1.62875 -4.68640625 1.2575 -3.9453125 0.875 C-2 0 -2 0 0 0 Z " fill="#636466" transform="translate(262,311)"/>
<path d="M0 0 C1.5625 1.1875 1.5625 1.1875 3 3 C2.6875 5.6875 2.6875 5.6875 2 8 C0.35 8 -1.3 8 -3 8 C-3.33 7.34 -3.66 6.68 -4 6 C-3.01 6 -2.02 6 -1 6 C-0.67 4.02 -0.34 2.04 0 0 Z " fill="#7A7C80" transform="translate(229,211)"/>
<path d="M0 0 C0.66 0.66 1.32 1.32 2 2 C1.625 5.625 1.625 5.625 1 9 C-0.65 8.67 -2.3 8.34 -4 8 C-2.68 5.36 -1.36 2.72 0 0 Z " fill="#CCCFD6" transform="translate(301,125)"/>
<path d="M0 0 C0.99 0 1.98 0 3 0 C3.33 2.31 3.66 4.62 4 7 C3.01 6.34 2.02 5.68 1 5 C-0.32 5 -1.64 5 -3 5 C-2 2 -2 2 0 0 Z " fill="#B1B3B8" transform="translate(267,215)"/>
<path d="M0 0 C0.99 0 1.98 0 3 0 C3 0.66 3 1.32 3 2 C3.66 2 4.32 2 5 2 C4.34 3.32 3.68 4.64 3 6 C1.68 5.67 0.36 5.34 -1 5 C-0.67 3.35 -0.34 1.7 0 0 Z " fill="#D6D8DC" transform="translate(218,187)"/>
<path d="M0 0 C1.32 0 2.64 0 4 0 C4.66 1.65 5.32 3.3 6 5 C4.02 5 2.04 5 0 5 C-0.33 4.01 -0.66 3.02 -1 2 C-0.67 1.34 -0.34 0.68 0 0 Z " fill="#C0C4CC" transform="translate(234,177)"/>
<path d="M0 0 C1.32 0.33 2.64 0.66 4 1 C3.34 1.66 2.68 2.32 2 3 C1.6936141 5.73434962 1.4886664 8.38279821 1.375 11.125 C1.33632812 11.87910156 1.29765625 12.63320312 1.2578125 13.41015625 C1.16348969 15.27303184 1.08065338 17.13648255 1 19 C0.67 19 0.34 19 0 19 C0 12.73 0 6.46 0 0 Z " fill="#BDC1C5" transform="translate(158,132)"/>
<path d="M0 0 C3.3 0.33 6.6 0.66 10 1 C10 1.66 10 2.32 10 3 C8.35 3 6.7 3 5 3 C5 3.66 5 4.32 5 5 C4.01 4.67 3.02 4.34 2 4 C1.34 2.68 0.68 1.36 0 0 Z " fill="#A1A2A6" transform="translate(328,129)"/>
<path d="M0 0 C0.66 0.33 1.32 0.66 2 1 C2.40729228 3.32156597 2.74438677 5.6568787 3 8 C2.01 8.495 2.01 8.495 1 9 C0.01 8.34 -0.98 7.68 -2 7 C-2 4 -2 4 -1 2 C-0.67 2 -0.34 2 0 2 C0 1.34 0 0.68 0 0 Z " fill="#9C9DA0" transform="translate(237,362)"/>
<path d="M0 0 C2.0625 0.6875 2.0625 0.6875 5.0625 2.6875 C0.6075 3.1825 0.6075 3.1825 -3.9375 3.6875 C-3.9375 2.6975 -3.9375 1.7075 -3.9375 0.6875 C-1.9375 -0.3125 -1.9375 -0.3125 0 0 Z " fill="#A6A6A9" transform="translate(284.9375,367.3125)"/>
<path d="M0 0 C1.0625 1.8125 1.0625 1.8125 2 4 C1.67 4.99 1.34 5.98 1 7 C-0.98 7 -2.96 7 -5 7 C-3.35 4.69 -1.7 2.38 0 0 Z " fill="#ADAEB3" transform="translate(275,241)"/>
<path d="M0 0 C0.66 0 1.32 0 2 0 C2.6875 1.8125 2.6875 1.8125 3 4 C1.5625 5.75 1.5625 5.75 0 7 C-1.32 6.34 -2.64 5.68 -4 5 C-3.01 4.67 -2.02 4.34 -1 4 C-0.26676204 1.98491642 -0.26676204 1.98491642 0 0 Z " fill="#B7B9BF" transform="translate(255,108)"/>
<path d="M0 0 C1.98 0.495 1.98 0.495 4 1 C3.67 2.32 3.34 3.64 3 5 C1.68 4.67 0.36 4.34 -1 4 C-0.67 2.68 -0.34 1.36 0 0 Z " fill="#979799" transform="translate(305,374)"/>
<path d="M0 0 C1.134375 0.020625 2.26875 0.04125 3.4375 0.0625 C-0.1875 3.0625 -0.1875 3.0625 -3.5625 3.0625 C-3.8925 4.3825 -4.2225 5.7025 -4.5625 7.0625 C-4.60504356 5.06295254 -4.60330783 3.06208364 -4.5625 1.0625 C-3.5625 0.0625 -3.5625 0.0625 0 0 Z " fill="#D7D7D9" transform="translate(159.5625,359.9375)"/>
<path d="M0 0 C0.99 0.33 1.98 0.66 3 1 C3 1.99 3 2.98 3 4 C3.66 4.33 4.32 4.66 5 5 C2.69 5.33 0.38 5.66 -2 6 C-1.34 4.02 -0.68 2.04 0 0 Z " fill="#8B8B90" transform="translate(303,282)"/>
<path d="M0 0 C0.66 0 1.32 0 2 0 C4 3 4 3 3.625 5.6875 C3.41875 6.450625 3.2125 7.21375 3 8 C1.5 6.8125 1.5 6.8125 0 5 C-0.1875 2.3125 -0.1875 2.3125 0 0 Z " fill="#CAC9CC" transform="translate(249,360)"/>
<path d="M0 0 C4.3890815 0.51035831 7.33708062 1.52214277 11 4 C7.25 5.125 7.25 5.125 5 4 C5 3.34 5 2.68 5 2 C3.68 2.33 2.36 2.66 1 3 C0.67 2.01 0.34 1.02 0 0 Z " fill="#6B6C72" transform="translate(265,213)"/>
<path d="M0 0 C0.66 0.33 1.32 0.66 2 1 C2 1.66 2 2.32 2 3 C2.66 3 3.32 3 4 3 C3.67 3.66 3.34 4.32 3 5 C2.34 4.67 1.68 4.34 1 4 C0.67 4.99 0.34 5.98 0 7 C0 6.01 0 5.02 0 4 C-0.66 4 -1.32 4 -2 4 C-2 3.01 -2 2.02 -2 1 C-1.34 0.67 -0.68 0.34 0 0 Z " fill="#898989" transform="translate(192,360)"/>
<path d="M0 0 C0.99 0.33 1.98 0.66 3 1 C3 2.32 3 3.64 3 5 C1.35 4.67 -0.3 4.34 -2 4 C-1.34 2.68 -0.68 1.36 0 0 Z " fill="#7A7A7A" transform="translate(268,352)"/>
<path d="M0 0 C1.98 0.99 3.96 1.98 6 3 C5.34 3.66 4.68 4.32 4 5 C1.375 4.625 1.375 4.625 -1 4 C-0.67 2.68 -0.34 1.36 0 0 Z " fill="#5E5E62" transform="translate(230,306)"/>
<path d="M0 0 C1.32 0.33 2.64 0.66 4 1 C3.67 2.32 3.34 3.64 3 5 C1.35 5 -0.3 5 -2 5 C-1.34 3.35 -0.68 1.7 0 0 Z " fill="#ADB1B6" transform="translate(245,177)"/>
<path d="M0 0 C2.64 0.99 5.28 1.98 8 3 C4.70497874 5.19668084 3.94533813 5 0 5 C0 3.35 0 1.7 0 0 Z " fill="#A1A2A6" transform="translate(274,110)"/>
<path d="M0 0 C0.66 0 1.32 0 2 0 C4 3 4 3 4 6 C2.68 5.67 1.36 5.34 0 5 C0 3.35 0 1.7 0 0 Z " fill="#C5C6C7" transform="translate(179,371)"/>
<path d="M0 0 C0.99 0 1.98 0 3 0 C2.67 1.65 2.34 3.3 2 5 C1.01 5 0.02 5 -1 5 C-0.67 3.35 -0.34 1.7 0 0 Z " fill="#6F6F71" transform="translate(318,369)"/>
<path d="M0 0 C0.33 0.99 0.66 1.98 1 3 C1.66 3 2.32 3 3 3 C3.33 2.34 3.66 1.68 4 1 C4 2.32 4 3.64 4 5 C3.34 5 2.68 5 2 5 C1.67 6.32 1.34 7.64 1 9 C0.67 6.03 0.34 3.06 0 0 Z " fill="#787879" transform="translate(177,366)"/>
<path d="M0 0 C0.66 0 1.32 0 2 0 C2 0.66 2 1.32 2 2 C2.66 2.33 3.32 2.66 4 3 C1 5 1 5 -2 5 C-1.125 1.125 -1.125 1.125 0 0 Z " fill="#8A8A8A" transform="translate(282,360)"/>
<path d="M0 0 C0.185625 0.9590625 0.185625 0.9590625 0.375 1.9375 C0.684375 2.9584375 0.684375 2.9584375 1 4 C1.66 4.33 2.32 4.66 3 5 C3 5.66 3 6.32 3 7 C1.68 7.33 0.36 7.66 -1 8 C-1.33 7.01 -1.66 6.02 -2 5 C-1.34 5 -0.68 5 0 5 C0 3.35 0 1.7 0 0 Z " fill="#A1A2A6" transform="translate(325,239)"/>
<path d="M0 0 C1 3 1 3 -0.4375 6.1875 C-1.2109375 7.5796875 -1.2109375 7.5796875 -2 9 C-2.66 7.68 -3.32 6.36 -4 5 C-3.34 4.01 -2.68 3.02 -2 2 C-1.34 2 -0.68 2 0 2 C0 1.34 0 0.68 0 0 Z " fill="#93979A" transform="translate(282,240)"/>
<path d="M0 0 C0.99 0.33 1.98 0.66 3 1 C1.68 2.32 0.36 3.64 -1 5 C-2.32 4.34 -3.64 3.68 -5 3 C-2 1 -2 1 0 0 Z " fill="#A3A5AA" transform="translate(263,114)"/>
<path d="M0 0 C0.99 0.33 1.98 0.66 3 1 C2.67 1.99 2.34 2.98 2 4 C0.35 4 -1.3 4 -3 4 C-3 3.34 -3 2.68 -3 2 C-2.01 1.34 -1.02 0.68 0 0 Z " fill="#CACDD2" transform="translate(270,251)"/>
<path d="M0 0 C2.31 0.33 4.62 0.66 7 1 C7 1.99 7 2.98 7 4 C4.69 3.67 2.38 3.34 0 3 C0 2.01 0 1.02 0 0 Z " fill="#D1D4DA" transform="translate(275,113)"/>
<path d="M0 0 C0.99 0 1.98 0 3 0 C3 1.32 3 2.64 3 4 C2.01 4 1.02 4 0 4 C0 2.68 0 1.36 0 0 Z " fill="#69696B" transform="translate(343,353)"/>
</svg>
