<?xml version="1.0" encoding="UTF-8"?>
<svg version="1.1" xmlns="http://www.w3.org/2000/svg" width="300" height="300">
<path d="M0 0 C99 0 198 0 300 0 C300 99 300 198 300 300 C201 300 102 300 0 300 C0 201 0 102 0 0 Z " fill="#010101" transform="translate(0,0)"/>
<path d="M0 0 C3.4779487 1.21746763 6.49772626 3.29735329 9.62133789 5.22070312 C35.13471354 20.51109318 62.02019788 28.60730523 91.05883789 34.72070312 C91.05883789 59.47070312 91.05883789 84.22070312 91.05883789 109.72070312 C87.75883789 109.72070312 84.45883789 109.72070312 81.05883789 109.72070312 C80.72883789 88.27070312 80.39883789 66.82070312 80.05883789 44.72070312 C75.10883789 43.73070312 70.15883789 42.74070313 65.05883789 41.72070312 C61.5852155 40.79357971 58.17255742 39.84974421 54.74633789 38.78320312 C53.88733887 38.51942871 53.02833984 38.2556543 52.14331055 37.98388672 C46.31309299 36.16922734 40.64519712 34.19348861 35.05883789 31.72070312 C33.71533861 31.15110098 32.37156005 30.58215736 31.02758789 30.01367188 C22.46008046 26.33857184 14.26971409 22.45129651 6.44897461 17.33911133 C3.1613724 15.32614226 1.44523426 14.665069 -2.41381836 15.22070312 C-6.32260333 16.88291069 -9.99976547 18.75218559 -13.69116211 20.84570312 C-20.54280571 24.72070312 -20.54280571 24.72070312 -23.94116211 24.72070312 C-23.94116211 25.38070313 -23.94116211 26.04070313 -23.94116211 26.72070312 C-26.25116211 27.05070312 -28.56116211 27.38070312 -30.94116211 27.72070312 C-30.94116211 28.38070312 -30.94116211 29.04070313 -30.94116211 29.72070312 C-31.75198242 29.95144531 -32.56280273 30.1821875 -33.39819336 30.41992188 C-38.88056507 32.03463671 -44.11968066 33.69284336 -49.25366211 36.22070312 C-59.17129451 40.93302846 -70.25922263 42.58431523 -80.94116211 44.72070312 C-81.27116211 66.17070313 -81.60116211 87.62070313 -81.94116211 109.72070312 C-85.24116211 109.72070312 -88.54116211 109.72070312 -91.94116211 109.72070312 C-91.94116211 84.64070313 -91.94116211 59.56070313 -91.94116211 33.72070312 C-86.65968663 32.54704191 -81.626848 31.44228702 -76.31616211 30.65820312 C-75.2165918 30.49449219 -74.11702148 30.33078125 -72.98413086 30.16210938 C-71.97995117 30.01644531 -70.97577148 29.87078125 -69.94116211 29.72070312 C-69.15354492 29.60597656 -68.36592773 29.49125 -67.55444336 29.37304688 C-66.01724432 29.15166527 -64.47931885 28.93532965 -62.94116211 28.72070312 C-62.94116211 28.06070313 -62.94116211 27.40070312 -62.94116211 26.72070312 C-62.07233398 26.53894531 -61.20350586 26.3571875 -60.30834961 26.16992188 C-59.15592773 25.91855469 -58.00350586 25.6671875 -56.81616211 25.40820312 C-55.67920898 25.16457031 -54.54225586 24.9209375 -53.37084961 24.66992188 C-49.91727724 23.71409262 -47.11934327 22.35543338 -43.94116211 20.72070312 C-41.70098337 19.92177682 -39.45028538 19.1518738 -37.19116211 18.40820312 C-31.81759366 16.5268909 -27.2265529 14.33046718 -22.44897461 11.26367188 C-18.65472021 8.92920071 -14.64802105 7.06063843 -10.64428711 5.11523438 C-8.40869795 3.96190297 -6.46028151 2.76694996 -4.44116211 1.28320312 C-1.94116211 -0.27929688 -1.94116211 -0.27929688 0 0 Z " fill="#B9BCC2" transform="translate(148.941162109375,5.279296875)"/>
<path d="M0 0 C3.96 0 7.92 0 12 0 C12.1959375 0.969375 12.391875 1.93875 12.59375 2.9375 C14.89887043 13.54425925 18.74108574 22.53769543 24 32 C24.495 32.91394531 24.99 33.82789063 25.5 34.76953125 C37.63925911 56.11669429 55.93254452 71.90026699 77 84 C77.92167969 84.54140625 78.84335938 85.0828125 79.79296875 85.640625 C83.70186688 87.7931801 86.2354321 88.9872572 90.75 89.0625 C94.33916169 87.88912022 96.90425783 86.13262239 100 84 C101.32 84 102.64 84 104 84 C104 83.34 104 82.68 104 82 C106.43188853 80.40388458 108.86933991 78.90926851 111.375 77.4375 C118.3039349 73.24579962 124.15071359 68.61658424 130 63 C131.34973783 61.86969025 132.70374007 60.744448 134.0625 59.625 C142.19793069 52.48808294 148.01582514 43.75031556 153.37109375 34.45703125 C154.17740234 33.24080078 154.17740234 33.24080078 155 32 C155.66 32 156.32 32 157 32 C157.12632812 31.46246094 157.25265625 30.92492187 157.3828125 30.37109375 C158.11347491 27.56405524 158.977584 24.82083679 159.875 22.0625 C160.36613281 20.53302734 160.36613281 20.53302734 160.8671875 18.97265625 C162 16 162 16 163.55859375 13.484375 C165.18689546 10.67787125 165.6873413 8.38082094 166.1875 5.1875 C166.455625 3.475625 166.72375 1.76375 167 0 C170.96 0 174.92 0 179 0 C179.46631605 6.33844408 177.82297506 11.22012256 175.625 17.125 C175.14933594 18.44564453 175.14933594 18.44564453 174.6640625 19.79296875 C173.1805488 23.89117533 171.65632751 27.96793001 170 32 C169.34 32 168.68 32 168 32 C168 33.32 168 34.64 168 36 C167.34 36 166.68 36 166 36 C165.72800781 36.72445312 165.45601562 37.44890625 165.17578125 38.1953125 C159.00650867 52.91138463 146.16736236 66.00090104 134 76 C133.47293457 76.43795898 132.94586914 76.87591797 132.40283203 77.32714844 C124.6467413 83.74003031 116.83597691 89.15403949 108 94 C105.21112501 95.64197078 102.50656391 97.32895739 99.8125 99.125 C95.21873348 101.61819807 91.23810058 102.72580217 86 102 C68.5598134 95.34736823 52.89993993 83.55699414 39.27734375 71.046875 C36.91977282 68.87149614 36.91977282 68.87149614 33.875 66.625 C29.50171363 62.6319994 26.36512971 57.84840047 23 53 C22.38769531 52.14664063 21.77539062 51.29328125 21.14453125 50.4140625 C3 25.01972958 3 25.01972958 3 12 C2.34 12 1.68 12 1 12 C0.67 8.04 0.34 4.08 0 0 Z " fill="#818286" transform="translate(59,135)"/>
<path d="M0 0 C1.41100983 0.00022659 1.41100983 0.00022659 2.8505249 0.00045776 C4.36165863 0.01594162 4.36165863 0.01594162 5.90332031 0.03173828 C7.45965179 0.03598312 7.45965179 0.03598312 9.04742432 0.04031372 C12.35888232 0.05150213 15.67006915 0.07660451 18.98144531 0.10205078 C21.22753515 0.1120823 23.47362924 0.12120785 25.71972656 0.12939453 C31.22372522 0.15143708 36.72756589 0.18490146 42.23144531 0.22705078 C42.23144531 2.20705078 42.23144531 4.18705078 42.23144531 6.22705078 C40.9352124 6.2416333 39.63897949 6.25621582 38.3034668 6.27124023 C33.47441623 6.32940177 28.64582324 6.40663369 23.81713867 6.48950195 C21.73095144 6.5226674 19.64467629 6.55072521 17.55834961 6.57348633 C14.55186652 6.60718647 11.54618306 6.65951047 8.54003906 6.71533203 C7.61372177 6.72172195 6.68740448 6.72811188 5.73301697 6.73469543 C-1.04795786 6.88715577 -6.2751561 7.6697189 -11.20605469 12.72705078 C-13.40159891 17.64506985 -13.67507724 21.92619855 -12.76855469 27.22705078 C-10.90941933 31.21496709 -8.44527133 33.77590636 -4.76855469 36.22705078 C-2.04693784 36.40840563 0.58069233 36.48002492 3.30175781 36.46533203 C4.93718266 36.48076369 6.57259947 36.49706819 8.20800781 36.51416016 C10.77524634 36.53054158 13.34189374 36.53959114 15.90917969 36.5324707 C27.01160456 36.52066418 35.00267172 36.63344818 43.60644531 44.35986328 C44.14269531 45.01728516 44.67894531 45.67470703 45.23144531 46.35205078 C45.78832031 47.01462891 46.34519531 47.67720703 46.91894531 48.35986328 C50.06783805 52.83953807 49.58107334 57.9826304 49.23144531 63.22705078 C48.23144531 66.85205078 48.23144531 66.85205078 47.23144531 69.22705078 C46.57144531 69.22705078 45.91144531 69.22705078 45.23144531 69.22705078 C45.02519531 69.78392578 44.81894531 70.34080078 44.60644531 70.91455078 C41.4169459 76.27870888 37.09083877 78.66939836 31.23144531 80.22705078 C27.75247753 80.49345444 24.28914905 80.46012355 20.80175781 80.42236328 C19.81142548 80.41953339 18.82109314 80.41670349 17.80075073 80.41378784 C14.65252355 80.40263548 11.50458582 80.37753985 8.35644531 80.35205078 C6.21582443 80.3420146 4.07519908 80.33288986 1.93457031 80.32470703 C-3.29990265 80.30271236 -8.53420798 80.26928411 -13.76855469 80.22705078 C-13.76855469 78.24705078 -13.76855469 76.26705078 -13.76855469 74.22705078 C-12.91197266 74.23157509 -12.91197266 74.23157509 -12.03808594 74.2361908 C-6.0672771 74.26084916 -0.09806259 74.23650005 5.87255859 74.18432617 C8.09745502 74.17122713 10.32246043 74.17041473 12.54736328 74.18237305 C15.75563705 74.19744547 18.96091629 74.16760697 22.16894531 74.12939453 C23.64911133 74.15077736 23.64911133 74.15077736 25.15917969 74.17259216 C31.72846724 74.03642381 35.06936238 72.53032397 39.77270508 67.92189026 C42.95701448 64.22219572 42.50372869 60.62145763 42.44238281 55.92236328 C42.17628221 52.52218889 41.53335457 50.75915096 39.23144531 48.22705078 C34.23534333 44.15634591 30.71524088 43.65852218 24.54394531 43.72314453 C23.72321533 43.7137233 22.90248535 43.70430206 22.05688477 43.69459534 C19.44814804 43.66605414 16.84032515 43.66286297 14.23144531 43.66455078 C11.62269944 43.66093422 9.01461454 43.6513112 6.40600586 43.62379456 C4.78776342 43.60710499 3.16930364 43.60405243 1.55102539 43.61680603 C-4.79823329 43.55782323 -8.81998107 41.96382292 -13.64355469 37.66455078 C-15.76855469 35.22705078 -15.76855469 35.22705078 -15.76855469 33.22705078 C-16.75855469 32.89705078 -17.74855469 32.56705078 -18.76855469 32.22705078 C-21.13082574 27.50250869 -20.3409067 21.33502249 -19.76855469 16.22705078 C-17.16596937 9.50224978 -13.13509476 4.77457123 -6.91815186 1.14749146 C-4.43995662 0.08634766 -2.68900075 -0.01445699 0 0 Z " fill="#9B9DA1" transform="translate(132.7685546875,83.77294921875)"/>
<path d="M0 0 C0.495 1.98 0.495 1.98 1 4 C-5.42587062 6.85411364 -10.63973097 7.40766174 -17.625 7.29296875 C-18.61250244 7.28872391 -19.60000488 7.28447906 -20.61743164 7.28010559 C-23.74524177 7.26342646 -26.8723874 7.22579435 -30 7.1875 C-32.13150106 7.17243925 -34.2630123 7.15875329 -36.39453125 7.14648438 C-41.59657764 7.1135584 -46.79824133 7.06346767 -52 7 C-52 5.02 -52 3.04 -52 1 C-45.36141906 0.85713726 -38.72282759 0.71477152 -32.08422852 0.57275391 C-29.82511147 0.52436629 -27.56599687 0.47586424 -25.30688477 0.42724609 C-22.06266911 0.35744738 -18.81844492 0.2880581 -15.57421875 0.21875 C-14.05534309 0.18593933 -14.05534309 0.18593933 -12.50578308 0.15246582 C-11.09465996 0.12243469 -11.09465996 0.12243469 -9.6550293 0.09179688 C-8.82674118 0.07403198 -7.99845306 0.05626709 -7.14506531 0.03796387 C-4.76313525 -0.00419209 -2.38223588 0 0 0 Z " fill="#96979C" transform="translate(171,157)"/>
<path d="M0 0 C3.71484887 1.08621312 5.97938419 3.34965771 8.00390625 6.5859375 C8.86187333 10.70417949 8.20695167 12.22722392 6.12890625 15.8984375 C4.00390625 18.5859375 4.00390625 18.5859375 2.00390625 19.5859375 C-1.90703366 19.9548941 -4.33155964 19.91820455 -7.87109375 18.1484375 C-10.46403072 15.02166056 -11.03133538 12.85650757 -11.25 8.84765625 C-10.97248895 6.37567318 -10.48009807 5.05209282 -9.05859375 3.0234375 C-5.71429647 0.36164987 -4.16768377 -0.33214937 0 0 Z " fill="#0B0B0B" transform="translate(86.99609375,266.4140625)"/>
<path d="M0 0 C1.41100983 0.00022659 1.41100983 0.00022659 2.8505249 0.00045776 C4.36165863 0.01594162 4.36165863 0.01594162 5.90332031 0.03173828 C7.45965179 0.03598312 7.45965179 0.03598312 9.04742432 0.04031372 C12.35888232 0.05150213 15.67006915 0.07660451 18.98144531 0.10205078 C21.22753515 0.1120823 23.47362924 0.12120785 25.71972656 0.12939453 C31.22372522 0.15143708 36.72756589 0.18490146 42.23144531 0.22705078 C42.23144531 2.20705078 42.23144531 4.18705078 42.23144531 6.22705078 C27.05144531 6.55705078 11.87144531 6.88705078 -3.76855469 7.22705078 C-3.43855469 6.56705078 -3.10855469 5.90705078 -2.76855469 5.22705078 C0.30423151 4.86953957 3.35553669 4.78265646 6.44628906 4.66845703 C7.36539063 4.52279297 8.28449219 4.37712891 9.23144531 4.22705078 C9.89144531 3.23705078 10.55144531 2.24705078 11.23144531 1.22705078 C8.85556907 1.34191503 6.4812936 1.46863234 4.10644531 1.60205078 C3.44128906 1.63298828 2.77613281 1.66392578 2.09082031 1.69580078 C-2.16676731 1.94624711 -5.78941252 2.70233275 -9.76855469 4.22705078 C-7.76889304 0.22772748 -4.13355289 -0.0222234 0 0 Z " fill="#797B7F" transform="translate(132.7685546875,83.77294921875)"/>
<path d="M0 0 C-0.6484375 1.9765625 -0.6484375 1.9765625 -2 4 C-4.5390625 4.3984375 -4.5390625 4.3984375 -7.625 4.375 C-13.87972306 4.68322554 -17.75956155 6.35726355 -22 11 C-24.46382339 14.60539489 -24.43301459 18.51832149 -24.625 22.75 C-24.66367188 23.44738281 -24.70234375 24.14476563 -24.7421875 24.86328125 C-24.83598624 26.57510818 -24.91906174 28.28751682 -25 30 C-26.32 30 -27.64 30 -29 30 C-31.04065442 23.87803674 -30.87552194 16.58048572 -28.8125 10.5 C-20.82751975 -0.51376586 -12.5066393 -0.43459364 0 0 Z " fill="#C1C3CA" transform="translate(144,85)"/>
<path d="M0 0 C1.37478516 0.01740234 1.37478516 0.01740234 2.77734375 0.03515625 C3.69644531 0.04417969 4.61554688 0.05320312 5.5625 0.0625 C6.27277344 0.07410156 6.98304688 0.08570313 7.71484375 0.09765625 C10.16473476 3.84000944 9.94570518 7.53991044 9.83984375 11.84765625 C9.83082031 12.54503906 9.82179687 13.24242187 9.8125 13.9609375 C9.78904263 15.67332583 9.75317479 17.38553629 9.71484375 19.09765625 C9.09609375 18.91203125 8.47734375 18.72640625 7.83984375 18.53515625 C5.67324197 17.86079449 5.67324197 17.86079449 3.71484375 19.09765625 C0.21484375 19.28515625 0.21484375 19.28515625 -3.28515625 19.09765625 C-5.28515625 17.09765625 -5.28515625 17.09765625 -5.59765625 14.16015625 C-5.28515625 11.09765625 -5.28515625 11.09765625 -4.05859375 9.41796875 C-1.76268 7.70867614 -0.42656913 7.78716004 2.40234375 7.91015625 C3.21058594 7.93722656 4.01882812 7.96429688 4.8515625 7.9921875 C5.46644531 8.02699219 6.08132812 8.06179688 6.71484375 8.09765625 C6.38484375 6.77765625 6.05484375 5.45765625 5.71484375 4.09765625 C2.19287165 4.01761143 -0.90497094 4.05759923 -4.28515625 5.09765625 C-3.16461059 0.13523977 -3.16461059 0.13523977 0 0 Z " fill="#6F7071" transform="translate(184.28515625,266.90234375)"/>
<path d="M0 0 C4.44594256 0.37049521 5.7430874 1.06914641 8.75 4.3125 C9.12398847 7.12489326 9.23293015 9.28842155 9.0625 12.0625 C9.03994141 12.75988281 9.01738281 13.45726562 8.99414062 14.17578125 C8.93547048 15.88894935 8.84579256 17.60100623 8.75 19.3125 C8.18410156 19.13332031 7.61820313 18.95414062 7.03515625 18.76953125 C4.48373993 18.25924799 2.73301837 18.53052199 0.1875 19 C-3.96913043 19.52728261 -3.96913043 19.52728261 -6.375 17.6875 C-7.46667802 14.72437395 -7.33730643 13.26376032 -6.25 10.3125 C-3.04619983 8.17663322 -2.23060033 8.08117825 1.4375 8.1875 C2.64986328 8.21457031 2.64986328 8.21457031 3.88671875 8.2421875 C4.80904297 8.27699219 4.80904297 8.27699219 5.75 8.3125 C5.42 6.9925 5.09 5.6725 4.75 4.3125 C2.831875 4.2815625 2.831875 4.2815625 0.875 4.25 C0.15570313 4.23839844 -0.56359375 4.22679687 -1.3046875 4.21484375 C-3.33185404 4.18600758 -3.33185404 4.18600758 -5.25 5.3125 C-4.14029803 0.39810558 -4.14029803 0.39810558 0 0 Z " fill="#4A4A4B" transform="translate(223.25,266.6875)"/>
<path d="M0 0 C0.33 0 0.66 0 1 0 C1.06058594 0.83144531 1.12117188 1.66289063 1.18359375 2.51953125 C1.26738281 3.60621094 1.35117188 4.69289063 1.4375 5.8125 C1.51871094 6.89144531 1.59992188 7.97039062 1.68359375 9.08203125 C1.90212461 12.05989905 1.90212461 12.05989905 3 15 C3.66 15 4.32 15 5 15 C5.66 13.68 6.32 12.36 7 11 C7.32613281 11.48210937 7.65226562 11.96421875 7.98828125 12.4609375 C8.42527344 13.09257813 8.86226562 13.72421875 9.3125 14.375 C9.74175781 15.00148438 10.17101562 15.62796875 10.61328125 16.2734375 C12.06920339 18.26378845 12.06920339 18.26378845 15 20 C17.82437444 20.24097687 20.55877174 20.3729132 23.38671875 20.4140625 C24.20372757 20.43342865 25.02073639 20.4527948 25.86250305 20.4727478 C28.47072934 20.53250352 31.07899986 20.57891258 33.6875 20.625 C35.4563994 20.6631835 37.22528028 20.70223546 38.99414062 20.7421875 C43.32927659 20.83820168 47.6644996 20.92224735 52 21 C52 21.33 52 21.66 52 22 C40.12 22.33 28.24 22.66 16 23 C16 23.66 16 24.32 16 25 C32.335 25.495 32.335 25.495 49 26 C49 26.33 49 26.66 49 27 C44.26777545 27.07445407 39.53589589 27.1287447 34.80322266 27.16479492 C33.19508928 27.17983176 31.58699656 27.20026672 29.97900391 27.22631836 C27.66037936 27.26292822 25.34229951 27.27977722 23.0234375 27.29296875 C22.31069672 27.30845261 21.59795593 27.32393646 20.86361694 27.33988953 C14.58009467 27.34198258 10.76278117 25.57117452 6.125 21.4375 C4 19 4 19 4 17 C3.01 16.67 2.02 16.34 1 16 C-0.50156874 12.99686252 -0.09281204 10.20932478 -0.0625 6.875 C-0.05347656 5.59367187 -0.04445313 4.31234375 -0.03515625 2.9921875 C-0.02355469 2.00476563 -0.01195313 1.01734375 0 0 Z " fill="#7C7E81" transform="translate(113,100)"/>
<path d="M0 0 C3.73421078 1.13682627 4.94569063 3.29090948 6.9375 6.58984375 C7.25 9.46484375 7.25 9.46484375 6.9375 11.58984375 C4.6275 11.58984375 2.3175 11.58984375 -0.0625 11.58984375 C-0.3925 10.59984375 -0.7225 9.60984375 -1.0625 8.58984375 C0.5875 8.58984375 2.2375 8.58984375 3.9375 8.58984375 C3.2775 7.26984375 2.6175 5.94984375 1.9375 4.58984375 C-0.7025 4.58984375 -3.3425 4.58984375 -6.0625 4.58984375 C-6.7225 5.90984375 -7.3825 7.22984375 -8.0625 8.58984375 C-6.0825 8.58984375 -4.1025 8.58984375 -2.0625 8.58984375 C-2.0625 9.24984375 -2.0625 9.90984375 -2.0625 10.58984375 C-4.0425 10.58984375 -6.0225 10.58984375 -8.0625 10.58984375 C-7.4025 12.23984375 -6.7425 13.88984375 -6.0625 15.58984375 C0.02158472 15.78798636 0.02158472 15.78798636 5.9375 14.58984375 C4.0625 18.46484375 4.0625 18.46484375 2.9375 19.58984375 C-0.13869109 20.09194932 -2.99116276 20.13215117 -6.0625 19.58984375 C-9.6619734 16.57803948 -10.86334148 14.70513144 -11.6875 10.08984375 C-10.47938378 3.32439289 -6.92852936 -0.5380108 0 0 Z " fill="#848485" transform="translate(131.0625,266.41015625)"/>
<path d="M0 0 C3 1 3 1 4.1875 3.0625 C6.12395213 10.06351924 5.1290711 16.52011261 2 23 C-0.5625 26.0625 -0.5625 26.0625 -3 28 C-3.66 28 -4.32 28 -5 28 C-5 27.01 -5 26.02 -5 25 C-6.98 25.99 -6.98 25.99 -9 27 C-8.73911731 23.47808373 -7.75685408 22.78724732 -5 20.375 C-4.01 19.59125 -3.02 18.8075 -2 18 C-0.414131 14.828262 -0.62133555 11.36486178 -0.4375 7.875 C-0.39431641 7.12089844 -0.35113281 6.36679688 -0.30664062 5.58984375 C-0.2005168 3.72678112 -0.09974999 1.86341476 0 0 Z " fill="#C4C6CB" transform="translate(176,132)"/>
<path d="M0 0 C3.71484887 1.08621312 5.97938419 3.34965771 8.00390625 6.5859375 C8.86187333 10.70417949 8.20695167 12.22722392 6.12890625 15.8984375 C4.00390625 18.5859375 4.00390625 18.5859375 2.00390625 19.5859375 C-1.90703366 19.9548941 -4.33155964 19.91820455 -7.87109375 18.1484375 C-10.46403072 15.02166056 -11.03133538 12.85650757 -11.25 8.84765625 C-10.97248895 6.37567318 -10.48009807 5.05209282 -9.05859375 3.0234375 C-5.71429647 0.36164987 -4.16768377 -0.33214937 0 0 Z M-6.99609375 4.5859375 C-7.79163979 8.38008017 -8.27163987 11.24265018 -7.49609375 15.0234375 C-5.93592532 16.90660099 -5.93592532 16.90660099 -2.62109375 17.5859375 C0.95513233 17.89284512 0.95513233 17.89284512 3.44140625 16.1484375 C5.77588703 12.31988902 5.569506 10.0400355 5.00390625 5.5859375 C2.89370312 3.08495602 1.665625 2.66663491 -1.55859375 2.2734375 C-4.25135339 2.43516237 -4.25135339 2.43516237 -6.99609375 4.5859375 Z " fill="#8D8D8F" transform="translate(86.99609375,266.4140625)"/>
<path d="M0 0 C1.97265625 0.265625 1.97265625 0.265625 4.97265625 2.265625 C4.97265625 3.255625 4.97265625 4.245625 4.97265625 5.265625 C1.34265625 4.605625 -2.28734375 3.945625 -6.02734375 3.265625 C-5.69734375 4.585625 -5.36734375 5.905625 -5.02734375 7.265625 C-3.76921875 7.348125 -2.51109375 7.430625 -1.21484375 7.515625 C1.71176843 7.88923507 2.73215888 8.06156663 5.03515625 10.015625 C6.24251382 12.91328318 6.05093059 14.33888035 4.97265625 17.265625 C1.97526684 19.26388461 1.33918117 19.54112898 -2.02734375 19.515625 C-3.04828125 19.52335937 -3.04828125 19.52335937 -4.08984375 19.53125 C-6.02734375 19.265625 -6.02734375 19.265625 -9.02734375 17.265625 C-9.02734375 16.275625 -9.02734375 15.285625 -9.02734375 14.265625 C-8.25390625 14.760625 -8.25390625 14.760625 -7.46484375 15.265625 C-4.24707863 16.58573377 -1.47029095 16.39804605 1.97265625 16.265625 C1.97265625 14.945625 1.97265625 13.625625 1.97265625 12.265625 C1.34617187 12.07226562 0.7196875 11.87890625 0.07421875 11.6796875 C-0.74304687 11.41929687 -1.5603125 11.15890625 -2.40234375 10.890625 C-3.62050781 10.50777344 -3.62050781 10.50777344 -4.86328125 10.1171875 C-7.02734375 9.265625 -7.02734375 9.265625 -9.02734375 7.265625 C-8.38655879 0.85777539 -6.23579614 0.04662277 0 0 Z " fill="#838384" transform="translate(62.02734375,266.734375)"/>
<path d="M0 0 C0.99 0 1.98 0 3 0 C3 1.32 3 2.64 3 4 C4.65 4.33 6.3 4.66 8 5 C8 5.66 8 6.32 8 7 C6.35 7 4.7 7 3 7 C3.0868276 9.12577907 3.1949951 11.25069581 3.3125 13.375 C3.39951172 15.15003906 3.39951172 15.15003906 3.48828125 16.9609375 C3.65714844 17.96382813 3.82601562 18.96671875 4 20 C4.99 20.66 5.98 21.32 7 22 C4.625 22.1875 4.625 22.1875 2 22 C-0.35119399 18.47320901 -0.21443452 16.97120515 -0.125 12.8125 C-0.10695313 11.72582031 -0.08890625 10.63914062 -0.0703125 9.51953125 C-0.04710938 8.68808594 -0.02390625 7.85664063 0 7 C-0.99 7 -1.98 7 -3 7 C-2.67 6.01 -2.34 5.02 -2 4 C-1.34 4 -0.68 4 0 4 C0 2.68 0 1.36 0 0 Z " fill="#A1A1A2" transform="translate(105,263)"/>
<path d="M0 0 C1.37478516 0.01740234 1.37478516 0.01740234 2.77734375 0.03515625 C3.69644531 0.04417969 4.61554688 0.05320312 5.5625 0.0625 C6.27277344 0.07410156 6.98304688 0.08570313 7.71484375 0.09765625 C9.30896659 3.28590193 8.8165911 6.72662287 8.77734375 10.22265625 C8.77283203 10.97675781 8.76832031 11.73085938 8.76367188 12.5078125 C8.75187874 14.37112752 8.73394317 16.2344018 8.71484375 18.09765625 C6.71484375 16.09765625 6.71484375 16.09765625 6.58984375 12.97265625 C6.63109375 12.02390625 6.67234375 11.07515625 6.71484375 10.09765625 C4.07484375 10.09765625 1.43484375 10.09765625 -1.28515625 10.09765625 C1.9427593 7.94571255 2.99885184 7.89679182 6.71484375 8.09765625 C6.38484375 6.77765625 6.05484375 5.45765625 5.71484375 4.09765625 C2.19287165 4.01761143 -0.90497094 4.05759923 -4.28515625 5.09765625 C-3.16461059 0.13523977 -3.16461059 0.13523977 0 0 Z " fill="#AFAFB1" transform="translate(184.28515625,266.90234375)"/>
<path d="M0 0 C0.33 0.66 0.66 1.32 1 2 C2.98 2 4.96 2 7 2 C7 2.33 7 2.66 7 3 C5.35 3 3.7 3 2 3 C2.66 4.65 3.32 6.3 4 8 C10.08408472 8.19814261 10.08408472 8.19814261 16 7 C14.125 10.875 14.125 10.875 13 12 C9.94618141 12.43360507 7.05051655 12.46397717 4 12 C1.4375 9.9375 1.4375 9.9375 0 7 C-0.25 3.1875 -0.25 3.1875 0 0 Z " fill="#B1B2B3" transform="translate(121,274)"/>
<path d="M0 0 C1.91015625 0.23046875 1.91015625 0.23046875 3.91015625 2.23046875 C3.91015625 3.22046875 3.91015625 4.21046875 3.91015625 5.23046875 C2.26015625 5.23046875 0.61015625 5.23046875 -1.08984375 5.23046875 C-1.41984375 5.89046875 -1.74984375 6.55046875 -2.08984375 7.23046875 C-2.08984375 6.57046875 -2.08984375 5.91046875 -2.08984375 5.23046875 C-4.06984375 5.23046875 -6.04984375 5.23046875 -8.08984375 5.23046875 C-6.84682804 -0.27431511 -5.68834769 0.11356048 0 0 Z " fill="#0D0E0E" transform="translate(131.08984375,269.76953125)"/>
<path d="M0 0 C0 0.99 0 1.98 0 3 C-1.98 3.66 -3.96 4.32 -6 5 C-6.33 9.62 -6.66 14.24 -7 19 C-7.66 19 -8.32 19 -9 19 C-9 13.06 -9 7.12 -9 1 C-4 0 -4 0 0 0 Z " fill="#9E9E9F" transform="translate(157,267)"/>
<path d="M0 0 C0.99 0 1.98 0 3 0 C3 5.94 3 11.88 3 18 C2.01 18 1.02 18 0 18 C0 12.06 0 6.12 0 0 Z " fill="#7B7B7C" transform="translate(166,267)"/>
<path d="M0 0 C5.75 0.75 5.75 0.75 8 3 C7.8125 5.5 7.8125 5.5 7 8 C4.00261059 9.99825961 3.36652492 10.27550398 0 10.25 C-0.680625 10.25515625 -1.36125 10.2603125 -2.0625 10.265625 C-4 10 -4 10 -7 8 C-7 7.01 -7 6.02 -7 5 C-6.2265625 5.495 -6.2265625 5.495 -5.4375 6 C-2.21973488 7.32010877 0.5570528 7.13242105 4 7 C3.72965366 4.56282742 3.72965366 4.56282742 3 2 C2.01 1.34 1.02 0.68 0 0 Z " fill="#8C8C8C" transform="translate(60,276)"/>
<path d="M0 0 C-0.875 4.875 -0.875 4.875 -2 6 C-4.67058851 6.14115161 -7.32432238 6.04247107 -10 6 C-10 4.35 -10 2.7 -10 1 C-6.52674819 -0.1577506 -3.63932552 -0.06866652 0 0 Z " fill="#060606" transform="translate(229,277)"/>
<path d="M0 0 C3.6875 0.25 3.6875 0.25 6.125 1.375 C8.3135738 4.00128857 7.98211899 5.93553637 7.6875 9.25 C6.3675 8.92 5.0475 8.59 3.6875 8.25 C4.3475 8.25 5.0075 8.25 5.6875 8.25 C5.3575 6.93 5.0275 5.61 4.6875 4.25 C3.40875 4.229375 2.13 4.20875 0.8125 4.1875 C0.09320313 4.17589844 -0.62609375 4.16429687 -1.3671875 4.15234375 C-3.39435404 4.12350758 -3.39435404 4.12350758 -5.3125 5.25 C-4.19856811 0.31687307 -4.19856811 0.31687307 0 0 Z " fill="#626263" transform="translate(223.3125,266.75)"/>
<path d="M0 0 C1.216875 0.12375 2.43375 0.2475 3.6875 0.375 C3.6875 1.035 3.6875 1.695 3.6875 2.375 C1.0475 3.035 -1.5925 3.695 -4.3125 4.375 C-4.9725 7.015 -5.6325 9.655 -6.3125 12.375 C-7.3025 12.375 -8.2925 12.375 -9.3125 12.375 C-9.79654486 8.30902319 -9.4316537 6.57607187 -7.3125 3 C-4.21291884 0.28786648 -3.81521854 0 0 0 Z " fill="#838383" transform="translate(85.3125,266.625)"/>
<path d="M0 0 C-0.875 4.875 -0.875 4.875 -2 6 C-3.99958364 6.04080783 -6.00045254 6.04254356 -8 6 C-8.33 5.01 -8.66 4.02 -9 3 C-8.67 2.34 -8.34 1.68 -8 1 C-5.2303041 0.27113266 -2.87137415 0 0 0 Z " fill="#050505" transform="translate(191,277)"/>
<path d="M0 0 C0.99 0 1.98 0 3 0 C3 1.32 3 2.64 3 4 C4.32 4.33 5.64 4.66 7 5 C5.02 5 3.04 5 1 5 C1 9.62 1 14.24 1 19 C0.67 19 0.34 19 0 19 C0 15.04 0 11.08 0 7 C-0.99 7 -1.98 7 -3 7 C-2.67 6.01 -2.34 5.02 -2 4 C-1.34 4 -0.68 4 0 4 C0 2.68 0 1.36 0 0 Z " fill="#78787A" transform="translate(105,263)"/>
<path d="M0 0 C0.33 0 0.66 0 1 0 C1 4.95 1 9.9 1 15 C0.34 14.67 -0.32 14.34 -1 14 C-0.979375 13.236875 -0.95875 12.47375 -0.9375 11.6875 C-0.87057159 8.89814214 -0.87057159 8.89814214 -2 6 C-4.97 6 -7.94 6 -11 6 C-11 5.34 -11 4.68 -11 4 C-3.57142857 3.85714286 -3.57142857 3.85714286 0 5 C0 3.35 0 1.7 0 0 Z " fill="#414141" transform="translate(231,271)"/>
<path d="M0 0 C5.84527221 4.14040115 5.84527221 4.14040115 6.5625 8.125 C5.9474585 11.26854544 5.29131998 11.93475692 3 14 C2.96261719 13.31292969 2.92523438 12.62585938 2.88671875 11.91796875 C2.82097656 11.01691406 2.75523438 10.11585938 2.6875 9.1875 C2.62949219 8.29417969 2.57148437 7.40085937 2.51171875 6.48046875 C1.93686419 3.69396 1.1793144 2.75864246 -1 1 C-0.67 0.67 -0.34 0.34 0 0 Z " fill="#9E9D9F" transform="translate(89,268)"/>
<path d="M0 0 C2.64 0 5.28 0 8 0 C7.34 1.32 6.68 2.64 6 4 C3.03 4 0.06 4 -3 4 C-2 2 -2 2 0 1 C0 0.67 0 0.34 0 0 Z " fill="#B5B9C0" transform="translate(136,85)"/>
<path d="M0 0 C0.99 0 1.98 0 3 0 C1.125 3.875 1.125 3.875 0 5 C-1.51928038 5.07179964 -3.04167482 5.08392007 -4.5625 5.0625 C-5.38878906 5.05347656 -6.21507813 5.04445313 -7.06640625 5.03515625 C-7.70449219 5.02355469 -8.34257813 5.01195312 -9 5 C-8.67 4.01 -8.34 3.02 -8 2 C-6.865625 1.855625 -5.73125 1.71125 -4.5625 1.5625 C-1.19222799 1.38828522 -1.19222799 1.38828522 0 0 Z " fill="#676869" transform="translate(134,281)"/>
<path d="M0 0 C0.99 0.33 1.98 0.66 3 1 C1.95125002 3.62187494 1.35068687 4.79371361 -1.125 6.25 C-1.74375 6.4975 -2.3625 6.745 -3 7 C-3 6.01 -3 5.02 -3 4 C-3.66 3.67 -4.32 3.34 -5 3 C-2.6875 1.4375 -2.6875 1.4375 0 0 Z M-7 4 C-6.01 4.495 -6.01 4.495 -5 5 C-5.99 5.495 -5.99 5.495 -7 6 C-7 5.34 -7 4.68 -7 4 Z " fill="#D0D3D9" transform="translate(174,153)"/>
<path d="M0 0 C1.37478516 0.01740234 1.37478516 0.01740234 2.77734375 0.03515625 C3.69644531 0.04417969 4.61554688 0.05320312 5.5625 0.0625 C6.27277344 0.07410156 6.98304688 0.08570313 7.71484375 0.09765625 C6.71484375 2.09765625 6.71484375 2.09765625 4.2109375 2.94921875 C3.20160156 3.20445312 2.19226563 3.4596875 1.15234375 3.72265625 C0.14042969 3.98304688 -0.87148437 4.2434375 -1.9140625 4.51171875 C-2.69652344 4.70507812 -3.47898438 4.8984375 -4.28515625 5.09765625 C-3.16461059 0.13523977 -3.16461059 0.13523977 0 0 Z " fill="#636363" transform="translate(184.28515625,266.90234375)"/>
<path d="M0 0 C0 0.99 0 1.98 0 3 C-2.31 3.66 -4.62 4.32 -7 5 C-7.33 3.68 -7.66 2.36 -8 1 C-5.10765685 0.17361624 -3.11257569 0 0 0 Z " fill="#888889" transform="translate(157,267)"/>
<path d="M0 0 C1.134375 0.020625 2.26875 0.04125 3.4375 0.0625 C3.4375 1.0525 3.4375 2.0425 3.4375 3.0625 C1.766875 3.2790625 1.766875 3.2790625 0.0625 3.5 C-3.38392047 3.84622035 -3.38392047 3.84622035 -5.5625 5.0625 C-4.43693182 0.07784091 -4.43693182 0.07784091 0 0 Z " fill="#424243" transform="translate(223.5625,266.9375)"/>
<path d="M0 0 C7.75 -0.125 7.75 -0.125 10 1 C9.67 2.98 9.34 4.96 9 7 C8.814375 6.38125 8.62875 5.7625 8.4375 5.125 C6.28562767 1.94397134 3.62466237 1.80548053 0 1 C0 0.67 0 0.34 0 0 Z " fill="#A3A3A4" transform="translate(183,268)"/>
<path d="M0 0 C-1.49097658 3.7952131 -3.75700849 5.61042731 -7 8 C-4.18918919 0 -4.18918919 0 0 0 Z " fill="#2C2D2E" transform="translate(127,92)"/>
<path d="M0 0 C0 1.98 0 3.96 0 6 C-1.32 5.67 -2.64 5.34 -4 5 C-3.625 3.0625 -3.625 3.0625 -3 1 C-1 0 -1 0 0 0 Z " fill="#5B5B5C" transform="translate(231,279)"/>
<path d="M0 0 C0.33 1.32 0.66 2.64 1 4 C1.66 4 2.32 4 3 4 C3.33 5.32 3.66 6.64 4 8 C3.01 8 2.02 8 1 8 C0 7 0 7 -0.0625 3.4375 C-0.041875 2.303125 -0.02125 1.16875 0 0 Z " fill="#989899" transform="translate(77,275)"/>
</svg>
