<?xml version="1.0" encoding="UTF-8"?>
<svg version="1.1" xmlns="http://www.w3.org/2000/svg" width="500" height="500">
<path d="M0 0 C2.3359375 1.12109375 2.3359375 1.12109375 4.375 2.4375 C5.06335938 2.86933594 5.75171875 3.30117187 6.4609375 3.74609375 C6.96882812 4.15988281 7.47671875 4.57367188 8 5 C8 5.66 8 6.32 8 7 C8.86753906 7.25394531 9.73507812 7.50789063 10.62890625 7.76953125 C14.12756379 9.04656152 16.8269268 10.64981434 19.9375 12.6875 C26.99115076 17.15034292 34.36208873 20.66192676 42 24 C42.93005859 24.4115332 43.86011719 24.82306641 44.81835938 25.24707031 C60.28632609 32.06654578 75.84963751 38.00958563 92 43 C92.75023437 43.23912109 93.50046875 43.47824219 94.2734375 43.72460938 C106.40149482 47.56816657 118.84613884 49.77698743 131.36132812 51.94580078 C132.39114807 52.12839699 132.39114807 52.12839699 133.44177246 52.31468201 C135.33382883 52.64961672 137.22742483 52.97581969 139.12109375 53.30151367 C142 54 142 54 144 56 C144.24888897 58.11738682 144.24888897 58.11738682 144.24723816 60.78944397 C144.25143265 61.80044662 144.25562714 62.81144928 144.25994873 63.85308838 C144.25432922 64.96641541 144.24870972 66.07974243 144.24291992 67.22680664 C144.24481827 68.39592087 144.24671661 69.5650351 144.24867249 70.76957703 C144.25174815 73.98022972 144.24585797 77.19071374 144.23571944 80.4013474 C144.22695061 83.75612438 144.22869615 87.11089688 144.2290802 90.46568298 C144.22814313 96.09897183 144.21945282 101.73220687 144.20581055 107.36547852 C144.19007695 113.88658154 144.18481268 120.40762565 144.1855461 126.92874628 C144.18615557 133.1928922 144.18105803 139.45701885 144.17275429 145.72115898 C144.16921577 148.39140409 144.16739023 151.06164238 144.16686058 153.73188972 C144.16470461 157.45548635 144.15597677 161.17900737 144.14526367 164.90258789 C144.14594345 166.57561478 144.14594345 166.57561478 144.14663696 168.28244019 C144.14237198 169.29062302 144.13810699 170.29880585 144.13371277 171.33753967 C144.13203692 172.21894151 144.13036108 173.10034334 144.12863445 174.00845432 C144 176 144 176 143 177 C141.59651265 177.09860131 140.18819523 177.13078937 138.78125 177.1328125 C137.50701172 177.13474609 137.50701172 177.13474609 136.20703125 177.13671875 C135.31371094 177.13285156 134.42039062 177.12898437 133.5 177.125 C132.16001953 177.13080078 132.16001953 177.13080078 130.79296875 177.13671875 C129.94347656 177.13542969 129.09398437 177.13414062 128.21875 177.1328125 C127.43435547 177.13168457 126.64996094 177.13055664 125.84179688 177.12939453 C124 177 124 177 123 176 C122.90468837 174.6465941 122.8781128 173.28826016 122.87974548 171.9315033 C122.87768349 170.61683327 122.87768349 170.61683327 122.87557983 169.27560425 C122.87917511 168.30672272 122.88277039 167.33784119 122.88647461 166.33959961 C122.88632858 165.32508224 122.88618256 164.31056488 122.8860321 163.26530457 C122.88673171 159.89429627 122.89452632 156.52334246 122.90234375 153.15234375 C122.90420776 150.82206757 122.90563174 148.491791 122.90663147 146.16151428 C122.91045798 140.01462735 122.9202894 133.86776387 122.93133545 127.72088623 C122.94154671 121.45390134 122.94612848 115.18691268 122.95117188 108.91992188 C122.96191155 96.61327092 122.97898956 84.30663741 123 72 C122.24840103 71.86477936 121.49680206 71.72955872 120.72242737 71.59024048 C119.73451706 71.41173553 118.74660675 71.23323059 117.72875977 71.04931641 C116.7502858 70.87284576 115.77181183 70.69637512 114.76368713 70.51455688 C77.4448846 63.56635839 41.19496534 48.82846073 8.1953125 30.3828125 C7.45700195 29.97063477 6.71869141 29.55845703 5.95800781 29.13378906 C4.36805698 28.21312426 2.82725186 27.2079701 1.3046875 26.1796875 C-1.70584023 24.63870551 -3.65407712 24.60993127 -7 25 C-9.69358104 26.05501541 -9.69358104 26.05501541 -12.25 27.625 C-13.21035156 28.17671875 -14.17070312 28.7284375 -15.16015625 29.296875 C-17.67913445 30.80756894 -20.18426561 32.33844466 -22.6875 33.875 C-55.681453 53.6713718 -94.20705232 63.50504576 -131 73 C-131.33 107.32 -131.66 141.64 -132 177 C-138.6 177 -145.2 177 -152 177 C-152 136.74 -152 96.48 -152 55 C-147.52908761 53.50969587 -143.69984883 52.48908109 -139.1171875 51.703125 C-137.78185843 51.46839631 -136.446658 51.23293497 -135.11157227 50.99682617 C-134.42008087 50.87552338 -133.72858948 50.75422058 -133.0161438 50.62924194 C-119.70258006 48.27112765 -106.79600362 45.42254776 -94 41 C-92.56962402 40.51490967 -92.56962402 40.51490967 -91.11035156 40.02001953 C-79.4373133 36.03930935 -67.94761541 31.70504555 -56.625 26.8125 C-55.71709717 26.42094727 -54.80919434 26.02939453 -53.8737793 25.62597656 C-48.26673864 23.15004641 -42.88886227 20.37933159 -37.53125 17.40356445 C-35.41423031 16.22968847 -33.28719407 15.09125862 -31.13671875 13.98046875 C-23.47296139 10.00175461 -23.47296139 10.00175461 -16.140625 5.453125 C-15.51841064 5.03393799 -14.89619629 4.61475098 -14.25512695 4.18286133 C-13.07330436 3.37312633 -11.90176266 2.5481044 -10.74291992 1.70581055 C-6.79454595 -1.01103688 -4.56805109 -1.42945817 0 0 Z " fill="#AFB1B6" transform="translate(255,62)"/>
<path d="M0 0 C1.23105469 -0.00257813 2.46210937 -0.00515625 3.73046875 -0.0078125 C6.8125 0.125 6.8125 0.125 8.8125 1.125 C9.57803802 3.80899473 10.24245049 6.4717215 10.875 9.1875 C17.59024459 35.85202172 29.14606694 59.06117597 46.8125 80.125 C47.54726562 81.07246094 48.28203125 82.01992188 49.0390625 82.99609375 C54.50004591 89.99608157 60.65558518 95.86661546 67.26953125 101.7421875 C68.65634842 102.98505656 70.01745034 104.25647776 71.375 105.53125 C85.26269181 118.50527787 101.89786575 128.3180308 118.375 137.625 C119.11266602 138.04652344 119.85033203 138.46804688 120.61035156 138.90234375 C124.89307049 141.282716 128.92298987 143.33180021 133.8125 144.125 C137.06371769 143.22161874 137.06371769 143.22161874 140.1875 141.375 C141.07163574 140.89933594 141.07163574 140.89933594 141.97363281 140.4140625 C143.93618642 139.34450651 145.87458642 138.23852833 147.8125 137.125 C148.51858398 136.72603516 149.22466797 136.32707031 149.95214844 135.91601562 C158.53729552 131.05275311 166.84821126 125.96058483 174.8125 120.125 C176.63588139 118.8050157 178.46196751 117.48892322 180.2902832 116.17578125 C181.52689798 115.28718816 182.76123194 114.39540968 183.99291992 113.5 C186.32490431 111.819195 188.58566794 110.23766244 191.1640625 108.95703125 C193.00756904 108.23233549 193.00756904 108.23233549 193.8125 106.125 C195.05758396 103.63483207 196.27966796 103.13813282 198.8125 102.125 C198.8125 101.465 198.8125 100.805 198.8125 100.125 C200.28125 98.6796875 200.28125 98.6796875 202.3125 97 C210.39239023 90.08657279 216.70053468 82.82738812 222.8125 74.125 C224.14458693 72.33240645 225.47791858 70.54073718 226.8125 68.75 C240.45259738 49.81871475 251.1635103 27.15537837 255.17211914 3.99902344 C255.8125 2.125 255.8125 2.125 258.8125 0.125 C261.35583737 -0.043983 263.77403793 -0.10843408 266.3125 -0.0625 C266.98925781 -0.06185547 267.66601562 -0.06121094 268.36328125 -0.06054688 C271.44255603 -0.03321603 273.87152474 0.14467491 276.8125 1.125 C272.98540983 32.4015645 259.04424528 61.50900054 240.125 86.4375 C239.37863281 87.42363281 238.63226563 88.40976562 237.86328125 89.42578125 C237.18652344 90.31652344 236.50976562 91.20726562 235.8125 92.125 C235.26980469 92.90230469 234.72710937 93.67960937 234.16796875 94.48046875 C233.72066406 95.02316406 233.27335938 95.56585938 232.8125 96.125 C232.1525 96.125 231.4925 96.125 230.8125 96.125 C230.585625 96.66125 230.35875 97.1975 230.125 97.75 C228.35679911 100.94960161 226.27579797 103.41537223 223.8125 106.125 C223.1525 106.125 222.4925 106.125 221.8125 106.125 C221.8125 106.785 221.8125 107.445 221.8125 108.125 C221.1525 108.125 220.4925 108.125 219.8125 108.125 C219.54695312 108.71539062 219.28140625 109.30578125 219.0078125 109.9140625 C215.59902894 116.2191981 208.80368782 121.36501316 202.8125 125.125 C202.1525 125.125 201.4925 125.125 200.8125 125.125 C200.8125 125.785 200.8125 126.445 200.8125 127.125 C199.51831055 128.3425293 199.51831055 128.3425293 197.69921875 129.69921875 C196.70148438 130.44788208 196.70148438 130.44788208 195.68359375 131.21166992 C194.96300781 131.73994385 194.24242187 132.26821777 193.5 132.8125 C192.76523437 133.35559814 192.03046875 133.89869629 191.2734375 134.45825195 C180.62742428 142.26447377 169.37081509 148.78766551 157.8125 155.125 C157.07563965 155.53105469 156.3387793 155.93710937 155.57958984 156.35546875 C153.34971434 157.57975199 151.11363695 158.79182302 148.875 160 C148.20194824 160.36915527 147.52889648 160.73831055 146.83544922 161.11865234 C144.85052957 162.17815379 142.84741631 163.16527169 140.8125 164.125 C140.10206543 164.47594727 139.39163086 164.82689453 138.65966797 165.18847656 C134.25286555 167.05791194 131.49663414 167.42358842 126.9765625 165.6953125 C125.23774667 164.87455922 123.51673059 164.01534516 121.8125 163.125 C120.89436523 162.66319336 119.97623047 162.20138672 119.03027344 161.72558594 C116.05650862 160.19486796 113.11975489 158.60872843 110.1875 157 C109.13715576 156.42596436 108.08681152 155.85192871 107.00463867 155.26049805 C93.47374787 147.80550461 80.86019067 139.79172413 68.8125 130.125 C67.90628906 129.41214844 67.00007813 128.69929687 66.06640625 127.96484375 C45.67708952 111.85821455 26.65461909 92.89519533 13.8125 70.125 C13.21050781 69.114375 12.60851562 68.10375 11.98828125 67.0625 C1.81528188 49.79438319 -5.11689643 32.53241482 -10.1875 13.125 C-10.39648926 12.3520459 -10.60547852 11.5790918 -10.82080078 10.78271484 C-11.7117406 7.40680902 -12.1875 4.64731185 -12.1875 1.125 C-8.07912554 0.13899013 -4.21888166 -0.00889122 0 0 Z " fill="#808184" transform="translate(118.1875,266.875)"/>
<path d="M0 0 C1.00861839 -0.00284752 1.00861839 -0.00284752 2.03761292 -0.00575256 C4.23499635 -0.00942373 6.43204109 0.0011856 8.62939453 0.01245117 C10.1639909 0.0136445 11.698588 0.01409581 13.23318481 0.01383972 C16.43561429 0.0153979 19.63793092 0.02364091 22.84033203 0.03710938 C26.9530226 0.05418466 31.06559043 0.05792091 35.1783123 0.05716419 C38.34033386 0.05743535 41.50232838 0.06290645 44.66434097 0.07016563 C46.18186361 0.07335421 47.69938932 0.07532015 49.21691513 0.07605934 C51.32825768 0.07821605 53.43946709 0.086943 55.55078125 0.09765625 C56.75322479 0.10146805 57.95566833 0.10527985 59.19454956 0.10920715 C61.88720703 0.24291992 61.88720703 0.24291992 62.88720703 1.24291992 C62.95926214 2.92900958 62.97106771 4.61792651 62.94970703 6.30541992 C62.94068359 7.22452148 62.93166016 8.14362305 62.92236328 9.09057617 C62.91076172 9.80084961 62.89916016 10.51112305 62.88720703 11.24291992 C61.64265244 11.24838837 61.64265244 11.24838837 60.37295532 11.25396729 C52.51741438 11.29198328 44.66228288 11.34898903 36.80703163 11.42682266 C32.76945093 11.46617271 28.73208425 11.49842173 24.69433594 11.51391602 C20.79072509 11.52916563 16.88770312 11.56375563 12.98435593 11.61122894 C11.50223309 11.62595784 10.02002613 11.63395601 8.53783035 11.63480377 C-1.00543977 11.6457422 -9.65342194 12.09734875 -17.51513672 18.06713867 C-22.7181806 24.38228353 -25.56141093 30.11295955 -24.98779297 38.43041992 C-23.8682767 45.90925026 -20.84129977 49.8557493 -15.24560547 54.72729492 C-11.2301203 57.58078988 -7.65011267 58.49156711 -2.76269531 58.49829102 C-1.71745697 58.50524994 -0.67221863 58.51220886 0.4046936 58.51937866 C1.52556366 58.51838165 2.64643372 58.51738464 3.80126953 58.51635742 C6.19580537 58.53665624 8.59033658 58.5575072 10.98486328 58.57885742 C14.74352931 58.6013908 18.50201187 58.61790399 22.26074219 58.6237793 C25.89958563 58.6333615 29.53761139 58.66721834 33.17626953 58.70385742 C34.2849942 58.69881195 35.39371887 58.69376648 36.53604126 58.68856812 C49.01857487 58.84414646 57.51343746 62.60533508 66.27392578 71.28979492 C72.90968172 78.7884967 75.24455669 86.69505268 75.09814453 96.56323242 C74.29569047 106.75737107 69.47943209 115.04420931 62.19970703 122.05541992 C52.47888416 129.77184059 41.71412893 129.80786334 29.87939453 129.66870117 C28.26083785 129.66376801 26.64227542 129.66047517 25.02371216 129.65873718 C21.65673159 129.65114864 18.29018402 129.63073307 14.92333984 129.59960938 C10.60000783 129.5597181 6.27695408 129.54194395 1.95345879 129.5323 C-2.17543373 129.52236178 -6.30425811 129.50248179 -10.43310547 129.48120117 C-11.22209354 129.47780542 -12.01108162 129.47440968 -12.82397842 129.47091103 C-15.04028847 129.45939512 -17.256418 129.44089178 -19.47265625 129.41992188 C-20.73409454 129.41007767 -21.99553284 129.40023346 -23.29519653 129.39009094 C-26.11279297 129.24291992 -26.11279297 129.24291992 -27.11279297 128.24291992 C-27.18459261 126.72363954 -27.19671304 125.2012451 -27.17529297 123.68041992 C-27.16175781 122.44098633 -27.16175781 122.44098633 -27.14794922 121.17651367 C-27.13634766 120.53842773 -27.12474609 119.9003418 -27.11279297 119.24291992 C-24.33456983 117.85380835 -22.10816182 118.14868776 -18.99951172 118.18041992 C-17.70585693 118.18904053 -16.41220215 118.19766113 -15.0793457 118.20654297 C-14.38316132 118.21277679 -13.68697693 118.21901062 -12.96969604 118.22543335 C-0.14081025 118.32884117 12.68847659 118.25826991 25.51473999 117.98046875 C27.12680481 117.94733403 28.73898245 117.91926678 30.35122681 117.89648438 C43.55112846 118.03396294 43.55112846 118.03396294 55.12939453 112.41088867 C61.51851089 104.66141022 62.74753597 98.24424388 61.88720703 88.24291992 C60.37868752 81.73742951 56.21591434 77.91400538 50.94262695 74.12988281 C45.95341465 71.3517664 40.82862724 71.69610227 35.25048828 71.73901367 C33.57674385 71.72488182 33.57674385 71.72488182 31.8691864 71.71046448 C28.31250568 71.68188261 24.75649306 71.6787323 21.19970703 71.68041992 C17.66087105 71.67679481 14.12252204 71.66704243 10.58378601 71.6396637 C8.38773129 71.62307588 6.19151747 71.61983837 3.99543762 71.63267517 C-6.09970418 71.56438678 -17.2596191 70.24148369 -25.11279297 63.24291992 C-25.11279297 62.58291992 -25.11279297 61.92291992 -25.11279297 61.24291992 C-25.70833984 61.00702148 -26.30388672 60.77112305 -26.91748047 60.52807617 C-32.04734984 57.52500318 -35.00981221 50.5784726 -36.55029297 44.99291992 C-38.50266989 33.50236827 -36.17670055 23.86201023 -29.83544922 14.32104492 C-22.63182353 4.88325127 -11.69014048 -0.01379923 0 0 Z " fill="#838487" transform="translate(230.11279296875,186.757080078125)"/>
<path d="M0 0 C6.00750377 3.3375021 7.70783312 6.65362048 9.6875 13.3125 C10.97468883 24.38232395 9.3190775 33.74210082 2.71875 42.8984375 C-3.03449779 49.93309048 -9.13580609 53.86292155 -18 56 C-23.67813517 56.52684623 -29.3103902 56.49277605 -35.0078125 56.42578125 C-36.62636918 56.42084809 -38.24493161 56.41755525 -39.86349487 56.41581726 C-43.23047545 56.40822872 -46.59702302 56.38781315 -49.96386719 56.35668945 C-54.2871992 56.31679818 -58.61025295 56.29902403 -62.93374825 56.28938007 C-67.06264076 56.27944186 -71.19146515 56.25956187 -75.3203125 56.23828125 C-76.10930058 56.2348855 -76.89828865 56.23148975 -77.71118546 56.2279911 C-79.9274955 56.2164752 -82.14362503 56.19797186 -84.35986328 56.17700195 C-85.62130157 56.16715775 -86.88273987 56.15731354 -88.18240356 56.14717102 C-91 56 -91 56 -92 55 C-92.07179964 53.48071962 -92.08392007 51.95832518 -92.0625 50.4375 C-92.05347656 49.61121094 -92.04445312 48.78492188 -92.03515625 47.93359375 C-92.02355469 47.29550781 -92.01195312 46.65742188 -92 46 C-89.22177687 44.61088843 -86.99536886 44.90576784 -83.88671875 44.9375 C-81.94623657 44.95043091 -81.94623657 44.95043091 -79.96655273 44.96362305 C-79.27036835 44.96985687 -78.57418396 44.9760907 -77.85690308 44.98251343 C-65.02801728 45.08592125 -52.19873044 45.01534999 -39.37246704 44.73754883 C-37.76040222 44.70441411 -36.14822458 44.67634686 -34.53598022 44.65356445 C-21.33607857 44.79104302 -21.33607857 44.79104302 -9.7578125 39.16796875 C-3.3069466 31.34359313 -2.31994238 25.04974045 -3 15 C-3.48568047 12.28163916 -4.05775416 9.63153044 -4.7578125 6.9609375 C-4.87769531 5.99027344 -4.87769531 5.99027344 -5 5 C-3.33333333 3.33333333 -1.66666667 1.66666667 0 0 Z " fill="#A2A3A8" transform="translate(295,260)"/>
<path d="M0 0 C1.00818031 -0.00262848 1.00818031 -0.00262848 2.03672791 -0.00531006 C4.24488959 -0.00969018 6.4529704 -0.00680551 8.66113281 -0.00341797 C10.19858821 -0.00409179 11.7360435 -0.00506248 13.27349854 -0.00631714 C16.48784403 -0.00778863 19.70216166 -0.005656 22.91650391 -0.00097656 C27.04493788 0.00473965 31.17330711 0.00142635 35.30173874 -0.00454903 C38.47233574 -0.00815308 41.64291725 -0.00701711 44.81351471 -0.00442123 C46.33662168 -0.00375252 47.85973004 -0.00457845 49.38283539 -0.00690079 C51.50395982 -0.00942683 53.62497733 -0.00558835 55.74609375 0 C56.9545697 0.00079559 58.16304565 0.00159119 59.40814209 0.00241089 C62.11425781 0.12939453 62.11425781 0.12939453 63.11425781 1.12939453 C63.18631293 2.81548419 63.19811849 4.50440112 63.17675781 6.19189453 C63.16773438 7.11099609 63.15871094 8.03009766 63.14941406 8.97705078 C63.1378125 9.68732422 63.12621094 10.39759766 63.11425781 11.12939453 C61.86970322 11.13819389 61.86970322 11.13819389 60.6000061 11.14717102 C52.74451504 11.20530288 44.88930212 11.27749539 37.03408241 11.36510944 C32.99653786 11.40965671 28.95909058 11.44894626 24.92138672 11.47583008 C21.01785567 11.50202052 17.11470215 11.5425312 13.21140671 11.5925808 C11.72927964 11.60914393 10.24708743 11.62072343 8.76488113 11.62700844 C0.47388119 11.66569011 -7.07820393 12.07260277 -14.88574219 15.12939453 C-10.24567216 10.14914341 -4.35666255 9.79880009 2.11425781 9.12939453 C1.78425781 8.46939453 1.45425781 7.80939453 1.11425781 7.12939453 C1.55175781 5.00439453 1.55175781 5.00439453 2.11425781 3.12939453 C-4.48542361 2.81232799 -9.00067624 2.82801607 -14.88574219 6.12939453 C-17.26074219 5.81689453 -17.26074219 5.81689453 -18.88574219 5.12939453 C-12.34818659 1.15558623 -7.74688664 0.00508672 0 0 Z " fill="#8E9094" transform="translate(229.8857421875,186.87060546875)"/>
<path d="M0 0 C1.53237305 0.00966797 1.53237305 0.00966797 3.09570312 0.01953125 C4.15080078 0.03628906 5.20589844 0.05304688 6.29296875 0.0703125 C7.36740234 0.07933594 8.44183594 0.08835938 9.54882812 0.09765625 C12.19293729 0.12115944 14.83658747 0.15401675 17.48046875 0.1953125 C17.48046875 0.5253125 17.48046875 0.8553125 17.48046875 1.1953125 C13.52046875 1.1953125 9.56046875 1.1953125 5.48046875 1.1953125 C5.66609375 2.1646875 5.85171875 3.1340625 6.04296875 4.1328125 C6.18734375 5.1434375 6.33171875 6.1540625 6.48046875 7.1953125 C4.35832028 9.31746097 0.21080857 9.13597407 -2.66015625 9.59765625 C-8.35621151 10.78822518 -11.11103347 12.36848848 -14.70703125 17.0078125 C-15.38121094 17.85988281 -16.05539063 18.71195313 -16.75 19.58984375 C-18.43945979 22.07741479 -19.41889695 24.41705941 -20.51953125 27.1953125 C-21.17953125 27.5253125 -21.83953125 27.8553125 -22.51953125 28.1953125 C-22.98852088 31.0112974 -22.98852088 31.0112974 -23.14453125 34.2578125 C-23.21929687 35.36253906 -23.2940625 36.46726563 -23.37109375 37.60546875 C-23.42007813 38.46011719 -23.4690625 39.31476563 -23.51953125 40.1953125 C-24.50953125 39.5353125 -25.49953125 38.8753125 -26.51953125 38.1953125 C-29.16585412 38.5074889 -29.16585412 38.5074889 -31.51953125 39.1953125 C-31.88004415 26.23687642 -31.53964757 17.98184393 -22.51953125 8.1953125 C-18.78187001 4.55109279 -15.55027607 3.4529987 -10.51953125 2.1953125 C-9.73618408 1.85129395 -8.95283691 1.50727539 -8.14575195 1.15283203 C-5.24396501 0.09484111 -3.07878213 -0.0343998 0 0 Z " fill="#C5C7CD" transform="translate(226.51953125,188.8046875)"/>
<path d="M0 0 C6.00750377 3.3375021 7.70783312 6.65362048 9.6875 13.3125 C10.3361742 18.89109812 10.57986135 24.57079395 9 30 C8.34 30 7.68 30 7 30 C6.01 32.97 5.02 35.94 4 39 C3.01 38.01 2.02 37.02 1 36 C1 35.01 1 34.02 1 33 C0.34 32.67 -0.32 32.34 -1 32 C-0.95359375 30.94941406 -0.9071875 29.89882813 -0.859375 28.81640625 C-0.52742913 18.33815924 -0.52742913 18.33815924 -4.125 8.6015625 C-5 7 -5 7 -5 5 C-3.33333333 3.33333333 -1.66666667 1.66666667 0 0 Z M1 29 C1.33 29.99 1.66 30.98 2 32 C2.33 31.01 2.66 30.02 3 29 C2.34 29 1.68 29 1 29 Z " fill="#D0D2D8" transform="translate(295,260)"/>
<path d="M0 0 C1.06723961 3.46222615 1.10173486 6.64039266 1.0625 10.25 C1.05347656 11.32765625 1.04445312 12.4053125 1.03515625 13.515625 C1.02355469 14.33546875 1.01195312 15.1553125 1 16 C2.2065625 15.7215625 2.2065625 15.7215625 3.4375 15.4375 C4.7059375 15.2209375 4.7059375 15.2209375 6 15 C6.33 15.33 6.66 15.66 7 16 C7.04898438 15.28972656 7.09796875 14.57945312 7.1484375 13.84765625 C7.22320312 12.92855469 7.29796875 12.00945312 7.375 11.0625 C7.44460937 10.14597656 7.51421875 9.22945312 7.5859375 8.28515625 C7.79089844 7.15400391 7.79089844 7.15400391 8 6 C8.66 5.67 9.32 5.34 10 5 C9.938125 6.2375 9.87625 7.475 9.8125 8.75 C9.83547659 16.02209003 10.91454588 24.01431934 15.6875 29.75 C16.450625 30.4925 17.21375 31.235 18 32 C17.34 33.32 16.68 34.64 16 36 C15.34 36 14.68 36 14 36 C14 35.34 14 34.68 14 34 C11.03 34.495 11.03 34.495 8 35 C7.938125 34.38125 7.87625 33.7625 7.8125 33.125 C7.544375 32.42375 7.27625 31.7225 7 31 C6.21625 30.731875 5.4325 30.46375 4.625 30.1875 C2 29 2 29 0.25 26.1875 C-2.86807978 17.6528702 -2.47473343 8.58878072 0 0 Z " fill="#939599" transform="translate(195,211)"/>
<path d="M0 0 C0.61875 0.58007812 0.61875 0.58007812 1.25 1.171875 C1.8275 1.69265625 2.405 2.2134375 3 2.75 C3.8353125 3.51570312 3.8353125 3.51570312 4.6875 4.296875 C12.28652747 9.89345604 18.34881926 10.59941033 27.59375 10.609375 C28.78101685 10.62591125 29.96828369 10.64244751 31.19152832 10.65948486 C34.9610722 10.70783463 38.73021298 10.72930804 42.5 10.75 C45.0651243 10.77817039 47.63022994 10.8080993 50.1953125 10.83984375 C56.46346881 10.91359042 62.73151236 10.96530923 69 11 C69 11.33 69 11.66 69 12 C61.22209364 12.0253109 53.44419786 12.04285035 45.66625977 12.05493164 C43.01912031 12.059967 40.37198365 12.06679563 37.72485352 12.07543945 C33.92463493 12.08753979 30.12445305 12.09323622 26.32421875 12.09765625 C25.13664474 12.10281754 23.94907074 12.10797882 22.72550964 12.11329651 C21.0741375 12.11340981 21.0741375 12.11340981 19.3894043 12.11352539 C17.93379341 12.11685631 17.93379341 12.11685631 16.44877625 12.12025452 C14 12 14 12 11 11 C9.35 12.98 7.7 14.96 6 17 C8.31 17.99 10.62 18.98 13 20 C13 20.33 13 20.66 13 21 C7.05350921 20.62834433 2.62169588 18.85341397 -2 15 C-2 14.34 -2 13.68 -2 13 C-2.61875 12.773125 -3.2375 12.54625 -3.875 12.3125 C-6.61410209 10.62070165 -7.05024472 9.00755839 -8 6 C-7.01 6.33 -6.02 6.66 -5 7 C-4.67 7.99 -4.34 8.98 -4 10 C-2.02 10 -0.04 10 2 10 C2 10.66 2 11.32 2 12 C2.66 12 3.32 12 4 12 C4.95020416 9.760165 4.95020416 9.760165 5 7 C2.62494782 4.29151077 2.62494782 4.29151077 0 2 C0 1.34 0 0.68 0 0 Z " fill="#515154" transform="translate(207,235)"/>
<path d="M0 0 C2.84262206 1.42131103 3.59335994 3.18671989 5 6 C5.25 8.75 5.25 8.75 5 11 C4.67 11.33 4.34 11.66 4 12 C3.76572222 14.01594582 3.58663876 16.038474 3.4375 18.0625 C3.35371094 19.16722656 3.26992187 20.27195313 3.18359375 21.41015625 C3.12300781 22.26480469 3.06242188 23.11945313 3 24 C2.01 23.34 1.02 22.68 0 22 C-2.64632287 22.3121764 -2.64632287 22.3121764 -5 23 C-5.054348 20.9377952 -5.09294961 18.87517184 -5.125 16.8125 C-5.14820313 15.66394531 -5.17140625 14.51539063 -5.1953125 13.33203125 C-4.88616888 8.05804108 -2.77229924 4.41047606 0 0 Z " fill="#D2D5DA" transform="translate(200,205)"/>
<path d="M0 0 C3.81409901 -0.55622277 5.889659 -0.72361541 9.17578125 1.41796875 C12.58985335 4.3452079 15.18377985 6.83283499 17 11 C15.68 10.34 14.36 9.68 13 9 C12.54625 9.66 12.0925 10.32 11.625 11 C11.08875 11.66 10.5525 12.32 10 13 C9.34 13 8.68 13 8 13 C8.33 14.32 8.66 15.64 9 17 C5.19364503 13.79239749 1.45436433 10.59253891 -2 7 C-1.34 4.69 -0.68 2.38 0 0 Z " fill="#AEAFB3" transform="translate(282,252)"/>
<path d="M0 0 C-3.20010388 1.8133922 -6.13283843 2.52213974 -9.75 3.125 C-10.73484375 3.29257813 -11.7196875 3.46015625 -12.734375 3.6328125 C-13.48203125 3.75398438 -14.2296875 3.87515625 -15 4 C-14.99484627 4.5847601 -14.98969254 5.16952021 -14.98438263 5.77200031 C-14.85905372 19.99327432 -14.73387007 34.21454959 -14.60884857 48.4358263 C-14.54838591 55.31309382 -14.48787388 62.19036089 -14.42724609 69.06762695 C-14.36877185 75.70062342 -14.31043457 82.33362108 -14.25218201 88.96661949 C-14.22989977 91.50123828 -14.2075711 94.03585666 -14.18519592 96.57047462 C-14.15394115 100.11184205 -14.12284928 103.65321087 -14.09179688 107.19458008 C-14.08244614 108.24977844 -14.0730954 109.30497681 -14.0634613 110.39215088 C-14.05504715 111.35548843 -14.046633 112.31882599 -14.03796387 113.31135559 C-14.03058952 114.14926541 -14.02321518 114.98717524 -14.01561737 115.85047626 C-14.00314635 117.56694677 -14 119.28348419 -14 121 C-14.99 121.99 -14.99 121.99 -16 123 C-16 83.07 -16 43.14 -16 2 C-5 0 -5 0 0 0 Z " fill="#939498" transform="translate(120,114)"/>
<path d="M0 0 C4.0438595 5.09877936 4.04158551 8.88229419 3.5625 15.1875 C3.51029297 15.93708984 3.45808594 16.68667969 3.40429688 17.45898438 C3.27486216 19.30637082 3.13813482 21.15324371 3 23 C3.99 23.33 4.98 23.66 6 24 C6.33 25.65 6.66 27.3 7 29 C8.32 26.36 9.64 23.72 11 21 C12 25 12 25 10.92578125 27.47265625 C10.39339844 28.32730469 9.86101562 29.18195313 9.3125 30.0625 C8.79300781 30.91972656 8.27351563 31.77695312 7.73828125 32.66015625 C6.01858411 34.97498453 4.3885465 36.41283947 2 38 C1.23826608 33.6835078 0.83936396 30.25566547 2 26 C0.68 26.33 -0.64 26.66 -2 27 C-1.7834375 26.48953125 -1.566875 25.9790625 -1.34375 25.453125 C1.82434133 17.18088653 1.91945073 8.63752827 0 0 Z M5 20 C5.66 20 6.32 20 7 20 C6.67 20.99 6.34 21.98 6 23 C5.67 22.01 5.34 21.02 5 20 Z " fill="#7D8084" transform="translate(291,269)"/>
<path d="M0 0 C1.32 0.66 2.64 1.32 4 2 C0.7 2.33 -2.6 2.66 -6 3 C-6.33 4.32 -6.66 5.64 -7 7 C-6.34 7.33 -5.68 7.66 -5 8 C-4.67 8.33 -4.34 8.66 -4 9 C-1.85331715 9.12396871 0.29742387 9.1780072 2.44750977 9.20532227 C3.12065216 9.21522186 3.79379456 9.22512146 4.48733521 9.23532104 C6.72198925 9.26701838 8.95666458 9.29172574 11.19140625 9.31640625 C12.73697984 9.33696869 14.28254772 9.35796496 15.82810974 9.37937927 C19.90350732 9.43467337 23.97895625 9.48405013 28.05444336 9.53222656 C32.2101704 9.58238817 36.36582252 9.63810204 40.52148438 9.69335938 C48.6809263 9.80103064 56.84043076 9.90245552 65 10 C65 10.33 65 10.66 65 11 C55.49925675 11.02312484 45.99852312 11.0409158 36.49775791 11.05181217 C32.08662996 11.05704069 27.6755212 11.06413777 23.2644043 11.07543945 C19.01098885 11.08626944 14.75759191 11.09227707 10.50416374 11.09487724 C8.87778367 11.09673129 7.25140466 11.10035152 5.62503242 11.10573006 C3.35489807 11.11294198 1.08484115 11.11399088 -1.18530273 11.11352539 C-3.12722755 11.11685631 -3.12722755 11.11685631 -5.10838318 11.12025452 C-8 11 -8 11 -9 10 C-9.07179964 8.48071962 -9.08392007 6.95832518 -9.0625 5.4375 C-9.05347656 4.61121094 -9.04445312 3.78492188 -9.03515625 2.93359375 C-9.02355469 2.29550781 -9.01195312 1.65742188 -9 1 C-5.97562661 -0.5121867 -3.33758466 -0.17263369 0 0 Z " fill="#414143" transform="translate(212,305)"/>
<path d="M0 0 C0.66 0.33 1.32 0.66 2 1 C0.515 3.475 0.515 3.475 -1 6 C1.31 5.34 3.62 4.68 6 4 C6 4.66 6 5.32 6 6 C5.34 6 4.68 6 4 6 C4 6.66 4 7.32 4 8 C3.34 8 2.68 8 2 8 C2 9.32 2 10.64 2 12 C3.98 10.02 5.96 8.04 8 6 C8.66 6.33 9.32 6.66 10 7 C9.27683594 7.77923828 9.27683594 7.77923828 8.5390625 8.57421875 C3.8123208 13.69507421 3.8123208 13.69507421 1 20 C0.67 20 0.34 20 0 20 C-0.28875 19.0925 -0.5775 18.185 -0.875 17.25 C-1.76531776 14.67797092 -2.71494413 12.38653234 -4 10 C-5.65 11.65 -7.3 13.3 -9 15 C-8.46512323 10.81013196 -7.1610304 8.49994696 -4.5 5.25 C-3.55640625 4.08210937 -3.55640625 4.08210937 -2.59375 2.890625 C-1.75936615 1.9008167 -0.9154007 0.9154007 0 0 Z " fill="#A2A5AA" transform="translate(205,196)"/>
<path d="M0 0 C0.66 0.33 1.32 0.66 2 1 C1.9278125 1.61488281 1.855625 2.22976563 1.78125 2.86328125 C1.6884375 3.67152344 1.595625 4.47976563 1.5 5.3125 C1.4071875 6.11300781 1.314375 6.91351563 1.21875 7.73828125 C0.95186537 10.11896555 0.95186537 10.11896555 1 13 C-2.65079826 14.61064629 -6.0507432 15.44894091 -10 16 C-10 14 -10 14 -8 12 C-7.896875 11.2575 -7.79375 10.515 -7.6875 9.75 C-6.70769385 5.83077539 -4.74904136 3.95019072 -2 1 C-1.34 0.67 -0.68 0.34 0 0 Z " fill="#DDDEE5" transform="translate(292,294)"/>
<path d="M0 0 C0.6737265 -0.00014603 1.347453 -0.00029205 2.04159546 -0.0004425 C4.25457042 0.00025067 6.46745978 0.00801503 8.68041992 0.01586914 C10.22027032 0.01773544 11.76012132 0.01915834 13.29997253 0.02015686 C17.34249526 0.02396537 21.38498177 0.03378137 25.42749023 0.04486084 C29.55671702 0.05511084 33.68594969 0.05966216 37.81518555 0.06469727 C45.90960317 0.07540519 54.00399141 0.09246153 62.09838867 0.11352539 C62.09838867 0.44352539 62.09838867 0.77352539 62.09838867 1.11352539 C61.266465 1.11717102 60.43454132 1.12081665 59.57740784 1.12457275 C51.70683912 1.16256418 43.83668008 1.21954258 35.9664011 1.29742813 C31.92094449 1.33680424 27.87570234 1.36904065 23.83007812 1.38452148 C19.91998759 1.39975372 16.010487 1.43431367 12.10066032 1.48183441 C10.61491993 1.49658101 9.12909527 1.50456252 7.64328194 1.50540924 C-3.14784207 1.50090032 -3.14784207 1.50090032 -13.09608459 5.35760498 C-15.3969939 6.32092736 -16.59291495 5.9229835 -18.90161133 5.11352539 C-12.35467595 1.13401565 -7.75955933 -0.01418567 0 0 Z " fill="#131315" transform="translate(229.901611328125,186.886474609375)"/>
<path d="M0 0 C0.61875 0.680625 0.61875 0.680625 1.25 1.375 C3.0693562 3.06440219 4.77202047 3.9412494 7 5 C6.38511719 5.47050781 5.77023438 5.94101563 5.13671875 6.42578125 C4.32847656 7.04839844 3.52023438 7.67101562 2.6875 8.3125 C1.88699219 8.92738281 1.08648437 9.54226562 0.26171875 10.17578125 C-1.62701374 11.69916307 -3.33077636 13.24434407 -5 15 C-5.33 14.34 -5.66 13.68 -6 13 C-5.67 12.01 -5.34 11.02 -5 10 C-4.34 10 -3.68 10 -3 10 C-3 9.34 -3 8.68 -3 8 C-2.34 8 -1.68 8 -1 8 C-1 7.34 -1 6.68 -1 6 C-2.97536745 6.34786708 -2.97536745 6.34786708 -5 7 C-5.33 7.66 -5.66 8.32 -6 9 C-6.66 8.67 -7.32 8.34 -8 8 C-7.62118922 5.25362183 -7.22167713 4.19950942 -5.125 2.3125 C-3 1 -3 1 0 0 Z " fill="#D7DADF" transform="translate(212,194)"/>
<path d="M0 0 C0.66 0.33 1.32 0.66 2 1 C-0.74107732 6.80463433 -4.99417646 8.83865909 -10.75 11.0625 C-13.13948875 12.05812031 -14.3119391 13.07078754 -16 15 C-18.46598569 17.46598569 -20.79033355 18.65194009 -24 20 C-26.1953125 19.58203125 -26.1953125 19.58203125 -28 19 C-27.34515625 18.5875 -26.6903125 18.175 -26.015625 17.75 C-12.63660579 9.40080733 -12.63660579 9.40080733 0 0 Z " fill="#3A3A3C" transform="translate(304,379)"/>
<path d="M0 0 C14.52 0 29.04 0 44 0 C44 1.65 44 3.3 44 5 C42.68 4.01 41.36 3.02 40 2 C39.67 2.33 39.34 2.66 39 3 C36.98087953 2.77370032 34.96225866 2.54236792 32.94580078 2.29345703 C26.79897487 1.68111783 20.60984181 1.61618649 14.4375 1.4375 C13.03319297 1.39420824 11.62889594 1.35059096 10.22460938 1.30664062 C6.81649049 1.20123489 3.4083068 1.09911018 0 1 C0 0.67 0 0.34 0 0 Z " fill="#797A7D" transform="translate(248,188)"/>
<path d="M0 0 C0 3 0 3 -2.3359375 5.5234375 C-3.84802594 6.96352173 -5.38031933 8.37991431 -6.9140625 9.796875 C-9.98790371 12.72511321 -11.47048372 15.10109912 -13 19 C-16.625 20.3125 -16.625 20.3125 -20 21 C-18.95125002 18.37812506 -18.35068687 17.20628639 -15.875 15.75 C-15.25625 15.5025 -14.6375 15.255 -14 15 C-14 14.34 -14 13.68 -14 13 C-12.4609375 11.484375 -12.4609375 11.484375 -10.375 9.75 C-6.72639996 6.65323448 -3.34103014 3.42455589 0 0 Z " fill="#272829" transform="translate(331,354)"/>
<path d="M0 0 C4.59264615 4.00087662 5.70361719 9.85205535 6.2578125 15.73828125 C6.34885304 20.12773567 6.21776088 23.12996308 4 27 C3.93941406 25.72382813 3.87882812 24.44765625 3.81640625 23.1328125 C3.73200432 21.46352984 3.64735614 19.79425963 3.5625 18.125 C3.52318359 17.28324219 3.48386719 16.44148438 3.44335938 15.57421875 C3.40146484 14.76855469 3.35957031 13.96289062 3.31640625 13.1328125 C3.27974854 12.38918457 3.24309082 11.64555664 3.20532227 10.87939453 C3.10044135 8.91135688 3.10044135 8.91135688 2 7 C1.01 6.67 0.02 6.34 -1 6 C-0.67 4.02 -0.34 2.04 0 0 Z " fill="#3A3B3D" transform="translate(299,263)"/>
<path d="M0 0 C0.33 0.66 0.66 1.32 1 2 C0.22265625 3.7265625 0.22265625 3.7265625 -0.9375 5.625 C-1.618125 6.73875 -2.29875 7.8525 -3 9 C-3.66 9 -4.32 9 -5 9 C-5 10.32 -5 11.64 -5 13 C-7.31 14.32 -9.62 15.64 -12 17 C-10.39550335 13.47345008 -8.28731802 10.49483451 -6 7.375 C-5.29875 6.41335938 -4.5975 5.45171875 -3.875 4.4609375 C-2 2 -2 2 0 0 Z " fill="#3C3C3E" transform="translate(346,335)"/>
<path d="M0 0 C1.32 0.66 2.64 1.32 4 2 C0.7 2.33 -2.6 2.66 -6 3 C-6.33 4.32 -6.66 5.64 -7 7 C-6.34 7.33 -5.68 7.66 -5 8 C-4.67 8.66 -4.34 9.32 -4 10 C-5.65 10 -7.3 10 -9 10 C-9 7.03 -9 4.06 -9 1 C-5.97562661 -0.5121867 -3.33758466 -0.17263369 0 0 Z " fill="#4D4D50" transform="translate(212,305)"/>
<path d="M0 0 C-2.67599377 1.40271439 -5.36183418 2.77131639 -8.0625 4.125 C-8.81466797 4.52332031 -9.56683594 4.92164063 -10.34179688 5.33203125 C-14.2067842 7.23942759 -16.79411079 8.4606112 -21.05859375 7.2421875 C-22.02925781 6.83226562 -22.99992188 6.42234375 -24 6 C-22 5 -22 5 -19.5625 5.0625 C-16.75471394 5.22232131 -16.75471394 5.22232131 -14 3 C-11.3125 2.875 -11.3125 2.875 -9 3 C-8.67 2.01 -8.34 1.02 -8 0 C-4.71303767 -0.79953138 -3.28976808 -1.09658936 0 0 Z " fill="#37373A" transform="translate(269,426)"/>
<path d="M0 0 C2.83680518 1.41840259 3.62592304 3.18641385 5 6 C4.6875 8.3125 4.6875 8.3125 4 10 C0.89448334 10 -0.35261084 9.4606285 -3 8 C-2.37240135 5.07120629 -1.41377341 2.63904371 0 0 Z " fill="#DCDFE5" transform="translate(200,205)"/>
<path d="M0 0 C0.66 0.33 1.32 0.66 2 1 C1.25 7.75 1.25 7.75 -1 10 C-1 9.34 -1 8.68 -1 8 C-2.65 7.67 -4.3 7.34 -6 7 C-2.25 1.125 -2.25 1.125 0 0 Z " fill="#D3D6DB" transform="translate(292,294)"/>
<path d="M0 0 C1.65 1.65 3.3 3.3 5 5 C4.01 5.33 3.02 5.66 2 6 C2.33 7.32 2.66 8.64 3 10 C1.85073734 9.04578192 0.70569459 8.08647955 -0.4375 7.125 C-1.07558594 6.59132813 -1.71367187 6.05765625 -2.37109375 5.5078125 C-4 4 -4 4 -5 2 C-3.35 1.34 -1.7 0.68 0 0 Z " fill="#848588" transform="translate(288,259)"/>
<path d="M0 0 C-2.26887715 2.35614166 -4.60542061 4.54387683 -7.125 6.625 C-9.92395521 8.86074915 -9.92395521 8.86074915 -12 11 C-12.33 10.34 -12.66 9.68 -13 9 C-12.67 8.01 -12.34 7.02 -12 6 C-11.34 6 -10.68 6 -10 6 C-10 5.34 -10 4.68 -10 4 C-6.95728913 0.0210704 -4.91525785 -0.44684162 0 0 Z " fill="#D6D8DD" transform="translate(219,198)"/>
<path d="M0 0 C0 0.99 0 1.98 0 3 C-0.639375 3.12375 -1.27875 3.2475 -1.9375 3.375 C-2.618125 3.58125 -3.29875 3.7875 -4 4 C-4.33 4.66 -4.66 5.32 -5 6 C-5.66 6 -6.32 6 -7 6 C-7.33 6.66 -7.66 7.32 -8 8 C-10.32156597 8.40729228 -12.6568787 8.74438677 -15 9 C-12.59888822 6.36115438 -9.99444972 4.63586471 -6.9375 2.8125 C-5.62072266 2.01779297 -5.62072266 2.01779297 -4.27734375 1.20703125 C-2 0 -2 0 0 0 Z " fill="#464647" transform="translate(276,399)"/>
<path d="M0 0 C0.66 0.33 1.32 0.66 2 1 C0.27136297 2.10499565 -1.45793388 3.20895914 -3.1875 4.3125 C-4.15042969 4.92738281 -5.11335938 5.54226563 -6.10546875 6.17578125 C-7.53826172 7.07876953 -7.53826172 7.07876953 -9 8 C-10.35544922 8.88751953 -10.35544922 8.88751953 -11.73828125 9.79296875 C-12.48464844 10.19128906 -13.23101562 10.58960938 -14 11 C-14.66 10.67 -15.32 10.34 -16 10 C-15.67 9.34 -15.34 8.68 -15 8 C-14.01 8 -13.02 8 -12 8 C-11.67 7.01 -11.34 6.02 -11 5 C-9.0187415 4.27954236 -7.01495907 3.61998741 -5 3 C-4.0925 2.443125 -3.185 1.88625 -2.25 1.3125 C-1.13625 0.6628125 -1.13625 0.6628125 0 0 Z " fill="#39393B" transform="translate(301,405)"/>
<path d="M0 0 C0.33 0.66 0.66 1.32 1 2 C2.65 1.34 4.3 0.68 6 0 C0.56777494 5.73401535 0.56777494 5.73401535 -3 7 C-4.32 7 -5.64 7 -7 7 C-7 6.34 -7 5.68 -7 5 C-6.34 5 -5.68 5 -5 5 C-5 4.34 -5 3.68 -5 3 C-4.360625 2.87625 -3.72125 2.7525 -3.0625 2.625 C-2.0415625 2.315625 -2.0415625 2.315625 -1 2 C-0.67 1.34 -0.34 0.68 0 0 Z " fill="#7C7C82" transform="translate(287,307)"/>
<path d="M0 0 C3.375 0.3125 3.375 0.3125 7 1 C7.66 1.99 8.32 2.98 9 4 C8.01 4.99 7.02 5.98 6 7 C5.01 6.67 4.02 6.34 3 6 C3 5.01 3 4.02 3 3 C2.01 2.67 1.02 2.34 0 2 C0 1.34 0 0.68 0 0 Z " fill="#B1B0B5" transform="translate(199,239)"/>
<path d="M0 0 C0.45375 0.763125 0.9075 1.52625 1.375 2.3125 C3.00525469 5.00869044 4.39735892 6.29482136 7 8 C3.14974121 7.39644592 0.13898841 6.23227397 -3.3125 4.4375 C-4.19550781 3.98246094 -5.07851563 3.52742188 -5.98828125 3.05859375 C-6.65214844 2.70925781 -7.31601562 2.35992187 -8 2 C-8 1.67 -8 1.34 -8 1 C-2.25 0 -2.25 0 0 0 Z " fill="#656568" transform="translate(289,100)"/>
<path d="M0 0 C4.92101242 2.0085765 9.42543762 4.29260594 14 7 C11 8 11 8 8.0625 6.5625 C7.051875 6.046875 6.04125 5.53125 5 5 C3.68 5 2.36 5 1 5 C0.67 3.35 0.34 1.7 0 0 Z " fill="#4F5054" transform="translate(227,400)"/>
<path d="M0 0 C0.66 0.33 1.32 0.66 2 1 C-0.37277818 6.02470674 -3.21097855 7.56030983 -8 10 C-8 8.68 -8 7.36 -8 6 C-6.25 4.296875 -6.25 4.296875 -4 2.75 C-3.2575 2.22921875 -2.515 1.7084375 -1.75 1.171875 C-1.1725 0.78515625 -0.595 0.3984375 0 0 Z " fill="#545456" transform="translate(304,379)"/>
<path d="M0 0 C0.66 0.33 1.32 0.66 2 1 C1.38511719 1.67095703 1.38511719 1.67095703 0.7578125 2.35546875 C-2.31965433 5.80841598 -4.3764762 8.62897439 -6 13 C-6.99 13.66 -7.98 14.32 -9 15 C-8.46512323 10.81013196 -7.1610304 8.49994696 -4.5 5.25 C-3.55640625 4.08210937 -3.55640625 4.08210937 -2.59375 2.890625 C-1.75936615 1.9008167 -0.9154007 0.9154007 0 0 Z " fill="#46474A" transform="translate(205,196)"/>
<path d="M0 0 C4.29 0 8.58 0 13 0 C13 0.33 13 0.66 13 1 C11.72125 1.0825 10.4425 1.165 9.125 1.25 C6.94666582 1.45869931 6.94666582 1.45869931 5 2 C3.4100567 3.92064793 3.4100567 3.92064793 3 6 C2.34 6 1.68 6 1 6 C0.67 4.02 0.34 2.04 0 0 Z " fill="#A6A6A8" transform="translate(107,269)"/>
<path d="M0 0 C0.99 0.33 1.98 0.66 3 1 C1.74464015 4.76607955 0.47116415 5.26441793 -3 7 C-3.99 7 -4.98 7 -6 7 C-5.67 6.01 -5.34 5.02 -5 4 C-4.34 4 -3.68 4 -3 4 C-1.36323743 2.0399719 -1.36323743 2.0399719 0 0 Z " fill="#CDD0D6" transform="translate(247,81)"/>
<path d="M0 0 C0.33 0.66 0.66 1.32 1 2 C0.67 2.99 0.34 3.98 0 5 C-3.5625 6.1875 -3.5625 6.1875 -7 7 C-5.54744301 3.17053157 -3.57104439 1.87949705 0 0 Z " fill="#4E4F50" transform="translate(318,368)"/>
<path d="M0 0 C0.33 0 0.66 0 1 0 C1.16774403 2.77077198 1.33423936 5.54160927 1.5 8.3125 C1.54769531 9.09818359 1.59539062 9.88386719 1.64453125 10.69335938 C1.68964844 11.45068359 1.73476562 12.20800781 1.78125 12.98828125 C1.82314453 13.68477783 1.86503906 14.38127441 1.90820312 15.09887695 C1.98700971 16.73096966 2 18.36600579 2 20 C1.34 20.66 0.68 21.32 0 22 C0 14.74 0 7.48 0 0 Z " fill="#999A9D" transform="translate(104,215)"/>
<path d="M0 0 C0.99 0.99 1.98 1.98 3 3 C1.824375 3.928125 1.824375 3.928125 0.625 4.875 C-1.96837647 6.89858661 -1.96837647 6.89858661 -4 9 C-4.625 7.125 -4.625 7.125 -5 5 C-3.33333333 3.33333333 -1.66666667 1.66666667 0 0 Z " fill="#BEBFC3" transform="translate(295,260)"/>
<path d="M0 0 C0.66 0 1.32 0 2 0 C2 0.66 2 1.32 2 2 C2.99 1.67 3.98 1.34 5 1 C3.55746343 4.36591866 1.66735273 6.51047079 -1 9 C-0.814375 8.236875 -0.62875 7.47375 -0.4375 6.6875 C0.22819173 3.91032625 0.22819173 3.91032625 -1 1 C-0.67 0.67 -0.34 0.34 0 0 Z " fill="#4C4C4E" transform="translate(354,350)"/>
<path d="M0 0 C1.15941038 3.47823115 0.70820884 5.45895578 0 9 C-0.66 9 -1.32 9 -2 9 C-2.33 9.99 -2.66 10.98 -3 12 C-4 10 -4 10 -3.22265625 7.6171875 C-2.83980469 6.71226562 -2.45695312 5.80734375 -2.0625 4.875 C-1.68222656 3.96492188 -1.30195313 3.05484375 -0.91015625 2.1171875 C-0.60980469 1.41851562 -0.30945313 0.71984375 0 0 Z " fill="#464749" transform="translate(364,301)"/>
<path d="M0 0 C-7.74725275 5.16483516 -7.74725275 5.16483516 -11.375 4.6875 C-11.91125 4.460625 -12.4475 4.23375 -13 4 C-8.38987758 1.04952165 -5.63470383 -0.5497272 0 0 Z " fill="#383A3D" transform="translate(224,188)"/>
<path d="M0 0 C0.99 0.33 1.98 0.66 3 1 C3 2.32 3 3.64 3 5 C2.06027344 4.87431641 2.06027344 4.87431641 1.1015625 4.74609375 C-0.12433594 4.59333984 -0.12433594 4.59333984 -1.375 4.4375 C-2.59316406 4.28087891 -2.59316406 4.28087891 -3.8359375 4.12109375 C-6.04899186 3.81762672 -6.04899186 3.81762672 -8 5 C-7.67 4.01 -7.34 3.02 -7 2 C-2.25 0.875 -2.25 0.875 0 2 C0 1.34 0 0.68 0 0 Z " fill="#CCCED4" transform="translate(205,89)"/>
<path d="M0 0 C0.33 0.66 0.66 1.32 1 2 C3.02463255 2.65213292 3.02463255 2.65213292 5 3 C-0.75 8 -0.75 8 -3 8 C-3 7.01 -3 6.02 -3 5 C-2.01 5 -1.02 5 0 5 C0 3.35 0 1.7 0 0 Z " fill="#56585A" transform="translate(311,393)"/>
<path d="M0 0 C2.72647685 2.35468455 3.98756342 4.5408417 5 8 C4.625 10.3125 4.625 10.3125 4 12 C3.731875 11.195625 3.46375 10.39125 3.1875 9.5625 C2.795625 8.716875 2.40375 7.87125 2 7 C1.01 6.67 0.02 6.34 -1 6 C-0.67 4.02 -0.34 2.04 0 0 Z " fill="#4D4E51" transform="translate(299,263)"/>
<path d="M0 0 C5.75 1.875 5.75 1.875 8 3 C8 3.66 8 4.32 8 5 C7.01 5 6.02 5 5 5 C5 4.34 5 3.68 5 3 C4.401875 3.165 3.80375 3.33 3.1875 3.5 C1 4 1 4 -2 4 C-1.34 2.68 -0.68 1.36 0 0 Z " fill="#98999D" transform="translate(286,82)"/>
<path d="M0 0 C1.98 0.66 3.96 1.32 6 2 C3.01353231 3.99097846 0.40312738 4.94124926 -3 6 C-2.01 4.02 -1.02 2.04 0 0 Z " fill="#9FA0A4" transform="translate(217,245)"/>
<path d="M0 0 C1.67542976 0.28604898 3.34385343 0.61781233 5 1 C4.34 2.32 3.68 3.64 3 5 C2.34 5 1.68 5 1 5 C0.34 3.68 -0.32 2.36 -1 1 C-0.67 0.67 -0.34 0.34 0 0 Z " fill="#D0D1D6" transform="translate(265,72)"/>
<path d="M0 0 C0.33 0.66 0.66 1.32 1 2 C0.22265625 3.7265625 0.22265625 3.7265625 -0.9375 5.625 C-1.618125 6.73875 -2.29875 7.8525 -3 9 C-3.66 8.67 -4.32 8.34 -5 8 C-2.25 2.25 -2.25 2.25 0 0 Z " fill="#5A5B5C" transform="translate(346,335)"/>
<path d="M0 0 C1.65 1.32 3.3 2.64 5 4 C4.67 4.66 4.34 5.32 4 6 C3.01 5.34 2.02 4.68 1 4 C0.01 4.33 -0.98 4.66 -2 5 C-2 4.01 -2 3.02 -2 2 C-1.34 2 -0.68 2 0 2 C0 1.34 0 0.68 0 0 Z " fill="#797A7C" transform="translate(294,257)"/>
<path d="M0 0 C3.37503669 1.1858237 5.64722731 2.27573689 8 5 C6.02 5.33 4.04 5.66 2 6 C1.34 4.02 0.68 2.04 0 0 Z " fill="#3E3E40" transform="translate(211,390)"/>
<path d="M0 0 C0.99 0.33 1.98 0.66 3 1 C1.02 3.97 1.02 3.97 -1 7 C-1.66 6.34 -2.32 5.68 -3 5 C-2.67 4.01 -2.34 3.02 -2 2 C-1.34 2 -0.68 2 0 2 C0 1.34 0 0.68 0 0 Z " fill="#C9CDD2" transform="translate(209,202)"/>
</svg>
